<svg id="visual" viewBox="0 0 960 540" width="960" height="540" xmlns="http://www.w3.org/2000/svg" xmlns:xlink="http://www.w3.org/1999/xlink" version="1.1"><rect x="0" y="0" width="960" height="540" fill="#ffffff"></rect><g transform="translate(449.5312180871115 264.8060709085034)"><path d="M172.2 -227C225.7 -198.2 273.4 -151.2 286 -96.6C298.6 -42 276.3 20.2 253.8 80.4C231.4 140.5 208.9 198.5 166.5 230.7C124.2 263 62.1 269.5 0 269.5C-62.1 269.5 -124.2 263 -160.2 228.7C-196.2 194.4 -206 132.3 -216 76.2C-226 20.1 -236.2 -30 -220.9 -70.1C-205.5 -110.2 -164.8 -140.5 -123.7 -173.3C-82.7 -206.1 -41.3 -241.6 9 -254C59.4 -266.4 118.7 -255.8 172.2 -227" fill="#fff4d6"></path></g></svg>