<svg id="visual" viewBox="0 0 960 540" width="960" height="540" xmlns="http://www.w3.org/2000/svg" xmlns:xlink="http://www.w3.org/1999/xlink" version="1.1"><g><g transform="translate(875 170)"><path d="M67.7 -82.2C86.4 -65.1 99.1 -42.4 103.7 -18C108.3 6.4 104.8 32.4 93.8 56.6C82.7 80.8 64.2 103.2 40.4 112.5C16.5 121.9 -12.6 118.3 -36.6 106.8C-60.7 95.4 -79.6 76.1 -93.8 53.3C-108 30.4 -117.5 4 -113.5 -20.2C-109.5 -44.5 -92 -66.6 -70.8 -83.3C-49.6 -100 -24.8 -111.3 -0.1 -111.2C24.6 -111 49.1 -99.4 67.7 -82.2Z" fill="#fff4d6"></path></g><g transform="translate(582 468)"><path d="M75.2 -88.4C93.7 -74.1 102.3 -46.8 104.7 -20.4C107.1 6.1 103.2 31.7 91.9 54.6C80.5 77.5 61.7 97.7 37.5 109.2C13.3 120.7 -16.3 123.5 -43.1 115.2C-69.9 106.8 -93.8 87.4 -109.6 62.2C-125.5 37 -133.3 6.1 -127.9 -22.2C-122.4 -50.4 -103.8 -75.9 -80.3 -89.4C-56.8 -102.8 -28.4 -104.2 0 -104.2C28.4 -104.2 56.7 -102.8 75.2 -88.4Z" fill="#fff4d6"></path></g><g transform="translate(15 196)"><path d="M79.1 -94.6C98.5 -78 107.4 -49.3 107.1 -23C106.8 3.2 97.4 27 84.8 49.2C72.3 71.3 56.6 91.9 35.3 101.7C14 111.4 -12.9 110.4 -35.7 100.9C-58.5 91.3 -77.3 73.4 -89.7 51.8C-102.1 30.2 -108.2 5 -103.9 -18.1C-99.5 -41.2 -84.7 -62.3 -65.7 -78.9C-46.6 -95.6 -23.3 -107.7 3.3 -111.6C29.9 -115.5 59.7 -111.1 79.1 -94.6Z" fill="#fff4d6"></path></g><g transform="translate(411 20)"><path d="M59.4 -68.8C77.4 -55.6 92.9 -37.4 97.4 -16.5C101.9 4.4 95.4 27.9 83.9 49.1C72.4 70.3 55.9 89.2 36.4 93.4C16.9 97.6 -5.5 87.2 -27.4 78C-49.4 68.9 -70.8 61.1 -81 45.7C-91.1 30.3 -90 7.3 -85 -13.9C-80 -35.1 -71 -54.5 -56.2 -68.3C-41.4 -82 -20.7 -90.1 0 -90.1C20.7 -90.1 41.3 -82 59.4 -68.8Z" fill="#fff4d6"></path></g><g transform="translate(136 534)"><path d="M78.7 -93.8C101.3 -74.9 118.3 -49.4 123.8 -21.4C129.3 6.6 123.3 37.1 108 61.3C92.8 85.5 68.4 103.3 41.3 112.9C14.1 122.6 -15.8 124.2 -43.3 115.6C-70.8 107.1 -95.8 88.4 -104.5 64.6C-113.1 40.7 -105.5 11.7 -99.8 -17.2C-94.2 -46.1 -90.6 -74.9 -74.3 -94.9C-58 -114.8 -29 -126 -0.5 -125.4C28.1 -124.9 56.2 -112.6 78.7 -93.8Z" fill="#fff4d6"></path></g><g transform="translate(924 499)"><path d="M42.9 -54.5C55.6 -40.4 66 -27 69.5 -11.6C73 3.7 69.5 20.9 61.2 35.3C52.9 49.7 39.7 61.3 24.3 67C8.9 72.7 -8.7 72.6 -25.6 67.6C-42.5 62.7 -58.7 53 -68.8 38.3C-78.9 23.7 -82.9 4.2 -79.6 -14C-76.3 -32.1 -65.8 -49 -51.3 -62.7C-36.8 -76.4 -18.4 -87 -1.7 -85C15.1 -83.1 30.2 -68.5 42.9 -54.5Z" fill="#fff4d6"></path></g></g></svg>