<svg width="16" height="16" viewBox="0 0 16 16" fill="none" xmlns="http://www.w3.org/2000/svg">
<path d="M11.1958 9.06673C11.3234 8.72564 11.3882 8.36424 11.3869 8.00006C11.3869 7.19144 11.0657 6.41595 10.4939 5.84417C9.92211 5.27239 9.14662 4.95117 8.338 4.95117C7.97831 4.95159 7.62158 5.01631 7.28467 5.14228L8.00022 5.88006C8.109 5.86266 8.21896 5.85374 8.32911 5.85339C8.90086 5.8522 9.44986 6.07728 9.85622 6.47948C10.2626 6.88168 10.4933 7.42833 10.498 8.00006C10.4976 8.11022 10.4887 8.22017 10.4713 8.32895L11.1958 9.06673Z" fill="#5C5959"/>
<path d="M15.2399 7.79113C13.7421 5.02224 11.1154 3.34668 8.20877 3.34668C7.41737 3.34854 6.63129 3.47605 5.87988 3.72446L6.59544 4.44446C7.12248 4.30825 7.66442 4.23808 8.20877 4.23557C10.711 4.23557 12.9865 5.63112 14.3421 7.98224C13.8448 8.85451 13.1856 9.62383 12.3999 10.2489L13.031 10.88C13.9404 10.1464 14.6956 9.2401 15.2532 8.21335L15.3688 8.00001L15.2399 7.79113Z" fill="#5C5959"/>
<path d="M2.16428 2.56847L4.14651 4.55069C2.89358 5.35741 1.86957 6.47326 1.17317 7.79069L1.05762 7.99958L1.17317 8.21292C2.67095 10.9818 5.29762 12.6574 8.20428 12.6574C9.3388 12.6571 10.4586 12.4004 11.4798 11.9062L13.7021 14.1285L14.4798 13.4618L2.92428 1.90625L2.16428 2.56847ZM6.49762 6.9018L9.45317 9.85736C9.11923 10.0641 8.73479 10.1748 8.34206 10.1774C8.0567 10.1774 7.77415 10.1209 7.51067 10.0113C7.2472 9.90173 7.008 9.7411 6.80683 9.5387C6.60567 9.3363 6.44652 9.09612 6.33853 8.83197C6.23055 8.56783 6.17586 8.28494 6.17762 7.99958C6.18262 7.61139 6.29325 7.23189 6.49762 6.9018V6.9018ZM5.85317 6.25736C5.43736 6.84376 5.24247 7.55838 5.303 8.27469C5.36353 8.991 5.67557 9.66278 6.18389 10.1711C6.6922 10.6794 7.36398 10.9914 8.08029 11.052C8.7966 11.1125 9.51122 10.9176 10.0976 10.5018L10.8087 11.2129C9.98552 11.5648 9.09954 11.7462 8.20428 11.7462C5.70206 11.7462 3.42651 10.3507 2.07095 7.99958C2.72149 6.84768 3.65838 5.88323 4.79095 5.19958L5.85317 6.25736Z" fill="#5C5959"/>
</svg>
