<svg width="800" height="800" viewBox="0 0 800 800" fill="none" xmlns="http://www.w3.org/2000/svg">
<path d="M667.84 523.088H710.208V505.184H667.84V523.088Z" fill="#EBEBEB"/>
<path d="M691.488 545.664H733.856V527.76H691.488V545.664Z" fill="#EBEBEB"/>
<path d="M330.256 325.376H372.624V307.472H330.256V325.376Z" fill="#EBEBEB"/>
<path d="M353.904 347.952H396.272V330.048H353.904V347.952Z" fill="#EBEBEB"/>
<path d="M377.44 325.376H419.808V307.472H377.44V325.376Z" fill="#EBEBEB"/>
<path d="M66.1441 545.648H108.512V527.744H66.1441V545.648Z" fill="#EBEBEB"/>
<path d="M89.792 92.6719H132.16V74.7679H89.792V92.6719Z" fill="#EBEBEB"/>
<path d="M66.1441 115.248H108.512V97.344H66.1441V115.248Z" fill="#EBEBEB"/>
<path d="M667.84 92.6719H710.208V74.7679H667.84V92.6719Z" fill="#EBEBEB"/>
<path d="M721.024 114.017H492.544V368.929H721.024V114.017Z" fill="#DBDBDB"/>
<path d="M705.984 129.072H507.6V354.016H705.984V129.072Z" fill="#EBEBEB"/>
<path d="M595.456 168.849H525.536V251.713H595.456V168.849Z" fill="white"/>
<path d="M563.008 174.481C563.008 174.978 562.861 175.463 562.585 175.876C562.309 176.289 561.916 176.611 561.457 176.802C560.998 176.992 560.493 177.041 560.006 176.944C559.519 176.848 559.071 176.608 558.72 176.257C558.369 175.906 558.129 175.458 558.032 174.971C557.935 174.484 557.985 173.978 558.175 173.519C558.365 173.06 558.687 172.668 559.101 172.392C559.514 172.116 559.999 171.969 560.496 171.969C561.162 171.969 561.801 172.233 562.272 172.704C562.743 173.176 563.008 173.815 563.008 174.481Z" fill="#A6A6A6"/>
<path d="M538.848 185.44C545.92 184.896 552.992 184.864 560.048 184.784C567.104 184.704 574.192 184.896 581.264 185.44C574.192 185.984 567.12 186.016 560.048 186.096C552.976 186.176 545.92 185.984 538.848 185.44Z" fill="#EBEBEB"/>
<path d="M538.848 192C546.509 191.125 554.244 191.125 561.904 192C558.078 192.474 554.224 192.693 550.368 192.656C546.518 192.685 542.67 192.465 538.848 192Z" fill="#EBEBEB"/>
<path d="M538.848 198.544C543.746 198.078 548.664 197.859 553.584 197.888C558.499 197.851 563.412 198.07 568.304 198.544C563.392 199.056 558.496 199.168 553.584 199.2C548.672 199.232 543.76 199.056 538.848 198.544Z" fill="#EBEBEB"/>
<path d="M538.848 205.089C544.992 204.577 551.136 204.449 557.28 204.433C563.424 204.417 569.568 204.577 575.712 205.089C569.568 205.601 563.424 205.729 557.28 205.745C551.136 205.761 544.992 205.601 538.848 205.089Z" fill="#EBEBEB"/>
<path d="M538.848 211.632C544.176 211.12 549.52 211.008 554.848 210.976C560.176 210.944 565.52 211.12 570.848 211.632C565.504 212.144 560.16 212.272 554.848 212.288C549.536 212.304 544.176 212.144 538.848 211.632Z" fill="#EBEBEB"/>
<path d="M538.848 218.176C545.68 217.632 552.512 217.6 559.344 217.52C566.176 217.44 573.008 217.632 579.84 218.176C573.008 218.736 566.176 218.768 559.344 218.848C552.512 218.928 545.68 218.72 538.848 218.176Z" fill="#EBEBEB"/>
<path d="M538.848 224.736C543.243 224.27 547.661 224.051 552.08 224.08C556.505 224.043 560.928 224.262 565.328 224.736C556.523 225.611 547.653 225.611 538.848 224.736Z" fill="#EBEBEB"/>
<path d="M538.848 231.28C545.92 230.736 552.992 230.704 560.048 230.624C567.104 230.544 574.192 230.736 581.264 231.28C574.192 231.824 567.12 231.856 560.048 231.936C552.976 232.016 545.92 231.824 538.848 231.28Z" fill="#EBEBEB"/>
<path d="M538.848 237.824C545.92 237.28 552.992 237.248 560.048 237.168C567.104 237.088 574.192 237.28 581.264 237.824C574.192 238.368 567.12 238.416 560.048 238.48C552.976 238.544 545.92 238.4 538.848 237.824Z" fill="#EBEBEB"/>
<path d="M688.848 220.513H606.112V318.561H688.848V220.513Z" fill="white"/>
<path d="M616.208 227.649C616.208 228.146 616.061 228.631 615.785 229.044C615.509 229.457 615.116 229.779 614.657 229.969C614.198 230.16 613.693 230.209 613.206 230.112C612.719 230.016 612.271 229.776 611.92 229.425C611.568 229.074 611.329 228.626 611.232 228.139C611.135 227.651 611.185 227.146 611.375 226.687C611.565 226.228 611.887 225.836 612.3 225.56C612.714 225.284 613.199 225.137 613.696 225.137C614.362 225.137 615.001 225.401 615.472 225.872C615.943 226.344 616.208 226.982 616.208 227.649Z" fill="#A6A6A6"/>
<path d="M617.68 244.976C620.719 244.514 623.79 244.29 626.864 244.304C629.933 244.281 632.999 244.506 636.032 244.976C629.946 245.851 623.766 245.851 617.68 244.976Z" fill="#EBEBEB"/>
<path d="M617.68 252.368C621.626 251.905 625.596 251.681 629.568 251.696C633.536 251.673 637.501 251.897 641.44 252.368C633.544 253.243 625.576 253.243 617.68 252.368Z" fill="#EBEBEB"/>
<path d="M617.68 259.761C621.331 259.296 625.008 259.076 628.688 259.105C632.368 259.067 636.047 259.287 639.696 259.761C632.384 260.635 624.993 260.635 617.68 259.761Z" fill="#EBEBEB"/>
<path d="M617.68 267.2C621.331 266.735 625.008 266.516 628.688 266.544C632.368 266.507 636.047 266.726 639.696 267.2C632.384 268.075 624.993 268.075 617.68 267.2Z" fill="#EBEBEB"/>
<path d="M617.68 274.544C620.858 274.078 624.068 273.858 627.28 273.888C630.493 273.85 633.703 274.07 636.88 274.544C630.51 275.424 624.05 275.424 617.68 274.544Z" fill="#EBEBEB"/>
<path d="M617.68 281.936C621.743 281.471 625.831 281.252 629.92 281.28C634.01 281.244 638.098 281.463 642.16 281.936C634.024 282.811 625.817 282.811 617.68 281.936Z" fill="#EBEBEB"/>
<path d="M617.68 289.328C624.388 288.453 631.181 288.453 637.888 289.328C631.181 290.202 624.388 290.202 617.68 289.328Z" fill="#EBEBEB"/>
<path d="M617.68 296.72C626.1 295.846 634.588 295.846 643.008 296.72C634.588 297.595 626.1 297.595 617.68 296.72Z" fill="#EBEBEB"/>
<path d="M617.68 304.112C626.1 303.237 634.588 303.237 643.008 304.112C634.588 304.987 626.1 304.987 617.68 304.112Z" fill="#EBEBEB"/>
<path d="M653.84 244.976C657.834 244.513 661.852 244.289 665.872 244.304C669.887 244.281 673.9 244.505 677.888 244.976C669.912 245.848 661.864 245.848 653.888 244.976H653.84Z" fill="#EBEBEB"/>
<path d="M653.84 252.368C656.449 251.907 659.095 251.682 661.744 251.696C664.394 251.673 667.04 251.898 669.648 252.368C664.415 253.242 659.073 253.242 653.84 252.368Z" fill="#EBEBEB"/>
<path d="M653.84 259.761C657.592 259.295 661.371 259.076 665.152 259.105C668.933 259.068 672.713 259.287 676.464 259.761C668.948 260.635 661.356 260.635 653.84 259.761Z" fill="#EBEBEB"/>
<path d="M653.84 267.2C657.491 266.735 661.168 266.516 664.848 266.544C668.528 266.507 672.206 266.726 675.856 267.2C668.543 268.075 661.153 268.075 653.84 267.2Z" fill="#EBEBEB"/>
<path d="M653.84 274.545C657.833 274.079 661.852 273.86 665.872 273.889C669.887 273.852 673.901 274.071 677.888 274.545C669.912 275.416 661.864 275.416 653.888 274.545H653.84Z" fill="#EBEBEB"/>
<path d="M653.84 281.936C657.018 281.469 660.228 281.25 663.44 281.28C666.652 281.241 669.863 281.46 673.04 281.936C666.67 282.818 660.21 282.818 653.84 281.936Z" fill="#EBEBEB"/>
<path d="M653.84 289.328C661.356 288.453 668.948 288.453 676.464 289.328C668.948 290.203 661.356 290.203 653.84 289.328Z" fill="#EBEBEB"/>
<path d="M653.84 296.721C659.642 295.846 665.542 295.846 671.344 296.721C665.542 297.595 659.642 297.595 653.84 296.721Z" fill="#EBEBEB"/>
<path d="M653.84 304.112C659.401 303.237 665.064 303.237 670.624 304.112C665.064 304.987 659.401 304.987 653.84 304.112Z" fill="#EBEBEB"/>
<path d="M631.104 146.064H589.024V188.144H631.104V146.064Z" fill="#A6A6A6"/>
<path d="M612.576 150.401C612.576 150.897 612.429 151.383 612.153 151.796C611.877 152.209 611.484 152.531 611.025 152.721C610.566 152.912 610.061 152.961 609.574 152.864C609.087 152.767 608.639 152.528 608.288 152.177C607.936 151.826 607.697 151.378 607.6 150.891C607.503 150.403 607.553 149.898 607.743 149.439C607.933 148.98 608.255 148.588 608.668 148.312C609.082 148.036 609.567 147.889 610.064 147.889C610.73 147.889 611.369 148.153 611.84 148.624C612.311 149.096 612.576 149.734 612.576 150.401Z" fill="#EBEBEB"/>
<path d="M705.808 129.072H700.128V354.272H705.808V129.072Z" fill="#C7C7C7"/>
<path d="M250.615 190.848C272.789 159.796 265.592 116.648 234.54 94.4743C203.488 72.3006 160.34 79.4978 138.166 110.55C115.993 141.602 123.19 184.75 154.242 206.923C185.294 229.097 228.442 221.9 250.615 190.848Z" fill="#EBEBEB"/>
<path d="M250.275 191.767C272.119 162.641 266.217 121.323 237.091 99.4787C207.966 77.6347 166.647 83.5373 144.803 112.663C122.959 141.788 128.862 183.107 157.987 204.951C187.113 226.795 228.431 220.892 250.275 191.767Z" fill="#DBDBDB"/>
<path d="M233.356 202.544C261.142 182.761 267.629 144.199 247.846 116.413C228.063 88.6266 189.501 82.1388 161.715 101.922C133.929 121.705 127.441 160.267 147.224 188.053C167.007 215.839 205.569 222.327 233.356 202.544Z" fill="white"/>
<path opacity="0.5" d="M257.904 139.201C229.776 156.241 183.552 184.193 157.728 199.521C150.397 193.346 144.601 185.552 140.8 176.753L226.288 97.6006C234.277 101.804 241.247 107.707 246.709 114.894C252.172 122.082 255.993 130.378 257.904 139.201Z" fill="#EBEBEB"/>
<path opacity="0.5" d="M259.2 154.4C258.986 161.244 257.629 168.004 255.184 174.4L178.144 210.832C174.79 209.715 171.536 208.318 168.416 206.656C191.696 193.264 234.208 168.8 259.2 154.4Z" fill="#EBEBEB"/>
<path d="M198.144 94.96H196.944V104.32H198.144V94.96Z" fill="#C7C7C7"/>
<path d="M169.432 102.311L168.392 102.911L173.072 111.017L174.112 110.417L169.432 102.311Z" fill="#C7C7C7"/>
<path d="M148.724 122.47L148.124 123.514L156.267 128.194L156.867 127.15L148.724 122.47Z" fill="#C7C7C7"/>
<path d="M149.632 151.648H140.272V152.848H149.632V151.648Z" fill="#C7C7C7"/>
<path d="M155.735 175.69L147.63 180.371L148.23 181.41L156.335 176.729L155.735 175.69Z" fill="#C7C7C7"/>
<path d="M173.06 193.463L168.382 201.57L169.422 202.17L174.099 194.062L173.06 193.463Z" fill="#C7C7C7"/>
<path d="M198.144 200.16H196.944V209.52H198.144V200.16Z" fill="#C7C7C7"/>
<path d="M222.018 193.425L220.979 194.025L225.659 202.131L226.698 201.531L222.018 193.425Z" fill="#C7C7C7"/>
<path d="M239.345 175.688L238.745 176.728L246.85 181.409L247.451 180.37L239.345 175.688Z" fill="#C7C7C7"/>
<path d="M254.816 151.648H245.456V152.848H254.816V151.648Z" fill="#C7C7C7"/>
<path d="M246.847 123.079L238.743 127.762L239.343 128.801L247.447 124.118L246.847 123.079Z" fill="#C7C7C7"/>
<path d="M225.67 102.325L220.994 110.434L222.034 111.033L226.71 102.925L225.67 102.325Z" fill="#C7C7C7"/>
<path d="M198.448 99.2006L200.48 156.401L194.608 156.337L196.848 99.1846L198.448 99.2006Z" fill="#C7C7C7"/>
<path d="M234.08 132.288L195.584 156.848L192.784 151.712L233.312 130.896L234.08 132.288Z" fill="#A6A6A6"/>
<path d="M199.536 152.24C199.536 152.636 199.419 153.023 199.199 153.351C198.979 153.68 198.667 153.937 198.301 154.088C197.936 154.239 197.534 154.279 197.146 154.202C196.758 154.125 196.402 153.934 196.122 153.655C195.842 153.375 195.652 153.018 195.574 152.63C195.497 152.243 195.537 151.84 195.688 151.475C195.84 151.109 196.096 150.797 196.425 150.577C196.754 150.358 197.14 150.24 197.536 150.24C197.799 150.238 198.06 150.288 198.304 150.388C198.548 150.488 198.769 150.635 198.955 150.821C199.141 151.007 199.288 151.229 199.388 151.472C199.488 151.716 199.538 151.977 199.536 152.24Z" fill="#C7C7C7"/>
<path d="M745.552 692.8L659.168 693.2L572.784 693.328L400 693.6L227.216 693.344L140.832 693.2L54.432 692.8L140.832 692.416L227.216 692.272L400 692L572.784 692.272L659.168 692.416L745.552 692.8Z" fill="#263238"/>
<path d="M667.936 225.968C667.818 221.071 668.005 216.17 668.496 211.296C668.921 206.42 669.643 201.573 670.656 196.784C670.774 201.682 670.587 206.582 670.096 211.456C669.671 216.333 668.95 221.179 667.936 225.968Z" fill="#263238"/>
<path d="M659.296 227.648C656.755 223.461 654.473 219.122 652.464 214.656C650.382 210.224 648.582 205.666 647.072 201.008C652.111 209.413 656.21 218.347 659.296 227.648Z" fill="#263238"/>
<path d="M652.672 233.424C648.379 231.069 644.233 228.457 640.256 225.6C636.233 222.799 632.391 219.748 628.752 216.464C637.318 221.231 645.338 226.918 652.672 233.424Z" fill="#263238"/>
<path d="M649.808 241.728C640.01 241.891 630.223 240.979 620.624 239.008C625.516 238.89 630.411 239.077 635.28 239.568C640.162 239.993 645.014 240.714 649.808 241.728Z" fill="#263238"/>
<path d="M680.832 252.4C689.423 257.167 697.47 262.854 704.832 269.36C700.532 267.018 696.385 264.404 692.416 261.536C688.372 258.73 684.503 255.679 680.832 252.4Z" fill="#263238"/>
<path d="M683.696 244.097C693.5 243.934 703.291 244.846 712.896 246.817C707.998 246.935 703.098 246.748 698.224 246.257C693.342 245.831 688.49 245.11 683.696 244.097Z" fill="#263238"/>
<path d="M682.016 235.456C686.203 232.915 690.542 230.634 695.008 228.624C699.44 226.543 703.998 224.742 708.656 223.232C704.473 225.775 700.14 228.062 695.68 230.08C691.241 232.154 686.678 233.95 682.016 235.456Z" fill="#263238"/>
<path d="M676.24 228.8C678.594 224.503 681.212 220.356 684.08 216.384C686.87 212.358 689.916 208.515 693.2 204.88C688.437 213.474 682.75 221.521 676.24 228.88V228.8Z" fill="#263238"/>
<path d="M312 590.064C310.224 592.32 160.832 599.024 153.728 596.976C153.383 596.875 153.05 596.736 152.736 596.56C143.936 592.432 106.176 563.92 100.16 551.904C95.36 542.304 123.824 489.76 133.76 480.752C140.368 474.784 152.624 472.432 152.624 472.432C152.624 472.432 187.216 372.592 208.544 351.696C213.904 346.448 306.544 344.4 323.088 351.952C330.176 355.152 347.408 372.752 347.888 375.952C348.288 380.576 313.744 587.776 312 590.064Z" fill="#37474F"/>
<path d="M313.024 590.064C311.248 592.32 161.872 599.024 154.752 596.976C154.409 596.87 154.076 596.73 153.76 596.56C168.16 557.856 235.36 376.256 237.28 375.088C239.2 373.92 327.712 374.448 348.912 375.984C349.36 380.576 314.816 587.776 313.024 590.064Z" fill="#263238"/>
<path d="M258.16 359.056C256.672 357.648 255.68 337.36 258.432 333.312C261.504 328.784 297.024 331.024 299.12 334.912C301.216 338.8 302.224 359.056 301.152 359.792C300.08 360.528 294.16 361.216 293.36 359.92C292.56 358.624 292.608 341.856 291.984 340.96C291.36 340.064 266.48 338.464 265.616 339.744C264.752 341.024 266.848 357.984 265.856 358.72C264.864 359.456 259.616 360.432 258.16 359.056Z" fill="#37474F"/>
<path d="M184.803 451.239L173.836 446.1L167.922 458.719L178.889 463.858L184.803 451.239Z" fill="#DBDBDB"/>
<path d="M184.273 461.391L166.395 453.013L159.646 467.414L177.524 475.792L184.273 461.391Z" fill="#C7C7C7"/>
<path d="M181.456 499.392L150.56 565.312L108.064 545.376L138.944 479.472C145.072 466.432 157.984 460.272 170.944 466.32C183.904 472.368 187.568 486.4 181.456 499.392Z" fill="#8A5A8E"/>
<path opacity="0.1" d="M181.456 499.392L150.56 565.312L108.064 545.376L138.944 479.472C145.072 466.432 157.984 460.272 170.944 466.32C183.904 472.368 187.568 486.4 181.456 499.392Z" fill="black"/>
<path d="M166.4 470.176C166.295 470.394 166.148 470.588 165.968 470.749C165.788 470.91 165.577 471.033 165.349 471.113C165.121 471.192 164.88 471.226 164.639 471.212C164.398 471.198 164.161 471.137 163.944 471.032C163.727 470.927 163.532 470.78 163.371 470.6C163.21 470.42 163.087 470.21 163.007 469.982C162.928 469.753 162.894 469.512 162.908 469.271C162.922 469.03 162.983 468.794 163.088 468.576C163.3 468.137 163.678 467.8 164.139 467.64C164.599 467.479 165.105 467.508 165.544 467.72C165.983 467.932 166.32 468.31 166.481 468.771C166.641 469.232 166.612 469.737 166.4 470.176Z" fill="white"/>
<path d="M180.56 494.96C180.406 495.286 180.159 495.559 179.851 495.744C179.542 495.93 179.185 496.02 178.825 496.003C178.465 495.987 178.118 495.863 177.828 495.65C177.538 495.436 177.318 495.141 177.195 494.802C177.073 494.463 177.053 494.096 177.139 493.746C177.225 493.396 177.413 493.079 177.679 492.836C177.945 492.593 178.277 492.434 178.633 492.379C178.989 492.324 179.353 492.376 179.68 492.528C179.898 492.629 180.094 492.773 180.256 492.95C180.418 493.127 180.544 493.335 180.626 493.561C180.707 493.787 180.744 494.027 180.732 494.267C180.721 494.507 180.663 494.742 180.56 494.96Z" fill="white"/>
<path d="M160.976 487.808C160.873 488.025 160.729 488.219 160.551 488.38C160.373 488.54 160.165 488.664 159.939 488.744C159.713 488.825 159.474 488.86 159.234 488.847C158.995 488.835 158.76 488.775 158.544 488.672C158.328 488.567 158.134 488.421 157.974 488.241C157.814 488.061 157.692 487.851 157.613 487.624C157.534 487.397 157.501 487.156 157.515 486.916C157.53 486.676 157.591 486.441 157.696 486.224C157.801 486.008 157.948 485.814 158.128 485.655C158.307 485.495 158.517 485.372 158.744 485.293C158.972 485.215 159.212 485.181 159.452 485.196C159.693 485.21 159.928 485.271 160.144 485.376C160.573 485.593 160.9 485.969 161.055 486.423C161.211 486.877 161.182 487.375 160.976 487.808Z" fill="white"/>
<path d="M155.2 504.4C155.1 504.62 154.958 504.817 154.781 504.98C154.604 505.144 154.396 505.27 154.169 505.352C153.943 505.434 153.702 505.47 153.461 505.458C153.221 505.445 152.985 505.385 152.768 505.28C152.442 505.126 152.169 504.88 151.983 504.571C151.798 504.262 151.707 503.905 151.724 503.545C151.741 503.185 151.864 502.838 152.078 502.548C152.292 502.258 152.587 502.038 152.926 501.915C153.265 501.793 153.632 501.773 153.982 501.859C154.332 501.946 154.648 502.133 154.892 502.399C155.135 502.665 155.294 502.997 155.349 503.353C155.404 503.709 155.352 504.074 155.2 504.4Z" fill="white"/>
<path d="M130.336 512.912C130.236 513.132 130.094 513.329 129.917 513.492C129.74 513.656 129.532 513.782 129.305 513.864C129.079 513.946 128.838 513.982 128.597 513.97C128.357 513.958 128.121 513.897 127.904 513.792C127.688 513.687 127.494 513.541 127.334 513.361C127.174 513.181 127.052 512.971 126.973 512.744C126.894 512.517 126.861 512.276 126.875 512.036C126.89 511.796 126.951 511.561 127.056 511.344C127.161 511.128 127.308 510.934 127.488 510.775C127.667 510.615 127.877 510.492 128.104 510.413C128.332 510.335 128.572 510.301 128.812 510.316C129.053 510.33 129.288 510.391 129.504 510.496C129.719 510.599 129.911 510.743 130.069 510.921C130.227 511.098 130.349 511.305 130.426 511.53C130.504 511.755 130.536 511.993 130.52 512.23C130.505 512.468 130.442 512.7 130.336 512.912Z" fill="white"/>
<path d="M135.584 497.424C135.479 497.642 135.332 497.836 135.152 497.997C134.971 498.158 134.761 498.281 134.533 498.361C134.305 498.44 134.064 498.474 133.823 498.46C133.581 498.447 133.345 498.385 133.128 498.28C132.911 498.175 132.716 498.028 132.555 497.848C132.394 497.668 132.271 497.458 132.191 497.23C132.112 497.001 132.078 496.76 132.092 496.519C132.106 496.278 132.167 496.042 132.272 495.824C132.484 495.385 132.862 495.048 133.323 494.888C133.783 494.727 134.289 494.756 134.728 494.968C135.167 495.18 135.504 495.558 135.665 496.019C135.825 496.48 135.796 496.985 135.584 497.424Z" fill="white"/>
<path d="M143.312 482.016C143.207 482.234 143.06 482.428 142.88 482.589C142.7 482.75 142.489 482.873 142.261 482.953C142.033 483.032 141.792 483.066 141.551 483.052C141.31 483.038 141.073 482.977 140.856 482.872C140.639 482.767 140.444 482.62 140.283 482.44C140.122 482.26 139.999 482.049 139.919 481.821C139.84 481.593 139.806 481.352 139.82 481.111C139.834 480.87 139.895 480.634 140 480.416C140.212 479.977 140.59 479.64 141.051 479.479C141.511 479.319 142.017 479.348 142.456 479.56C142.895 479.772 143.232 480.15 143.393 480.611C143.553 481.071 143.524 481.577 143.312 482.016Z" fill="white"/>
<path d="M154.96 475.84C154.808 476.168 154.563 476.444 154.255 476.632C153.946 476.82 153.589 476.912 153.228 476.897C152.867 476.882 152.519 476.76 152.227 476.547C151.936 476.334 151.714 476.039 151.59 475.699C151.467 475.36 151.447 474.991 151.533 474.64C151.619 474.29 151.807 473.972 152.074 473.729C152.34 473.485 152.673 473.326 153.031 473.272C153.388 473.217 153.753 473.271 154.08 473.424C154.516 473.629 154.853 473.998 155.018 474.451C155.183 474.903 155.162 475.403 154.96 475.84Z" fill="white"/>
<path d="M148.928 493.04C148.774 493.366 148.527 493.639 148.219 493.825C147.91 494.01 147.553 494.1 147.193 494.084C146.833 494.067 146.486 493.944 146.196 493.73C145.906 493.516 145.686 493.221 145.563 492.882C145.441 492.543 145.421 492.176 145.507 491.826C145.593 491.476 145.781 491.159 146.047 490.916C146.313 490.673 146.645 490.514 147.001 490.459C147.357 490.404 147.721 490.456 148.048 490.608C148.266 490.709 148.462 490.853 148.624 491.03C148.786 491.207 148.912 491.415 148.994 491.641C149.075 491.867 149.112 492.107 149.1 492.347C149.089 492.587 149.031 492.822 148.928 493.04Z" fill="white"/>
<path d="M173.504 482.768C173.35 483.094 173.103 483.367 172.795 483.553C172.486 483.739 172.129 483.829 171.769 483.812C171.409 483.795 171.062 483.672 170.772 483.458C170.482 483.244 170.262 482.949 170.139 482.611C170.017 482.272 169.997 481.904 170.083 481.554C170.169 481.204 170.357 480.888 170.623 480.645C170.889 480.401 171.221 480.242 171.577 480.187C171.933 480.132 172.297 480.184 172.624 480.336C172.842 480.438 173.038 480.581 173.2 480.758C173.362 480.936 173.488 481.143 173.57 481.369C173.651 481.595 173.688 481.835 173.676 482.075C173.665 482.315 173.607 482.551 173.504 482.768Z" fill="white"/>
<path d="M168 499.792C167.846 500.118 167.599 500.391 167.291 500.576C166.982 500.762 166.625 500.852 166.265 500.835C165.905 500.819 165.558 500.695 165.268 500.482C164.978 500.268 164.758 499.973 164.635 499.634C164.513 499.295 164.493 498.928 164.579 498.578C164.665 498.228 164.853 497.911 165.119 497.668C165.385 497.425 165.717 497.266 166.073 497.211C166.429 497.156 166.793 497.208 167.12 497.36C167.338 497.461 167.534 497.605 167.696 497.782C167.858 497.959 167.984 498.167 168.066 498.393C168.147 498.619 168.184 498.859 168.172 499.099C168.161 499.339 168.103 499.574 168 499.792Z" fill="white"/>
<path d="M142.592 508.8C142.438 509.125 142.191 509.398 141.883 509.584C141.574 509.77 141.217 509.86 140.857 509.843C140.497 509.826 140.15 509.703 139.86 509.489C139.57 509.276 139.35 508.981 139.227 508.642C139.105 508.303 139.085 507.935 139.171 507.586C139.257 507.236 139.445 506.919 139.711 506.676C139.977 506.433 140.309 506.273 140.665 506.219C141.021 506.164 141.385 506.216 141.712 506.368C141.93 506.469 142.126 506.612 142.288 506.79C142.45 506.967 142.576 507.175 142.658 507.401C142.739 507.627 142.776 507.867 142.764 508.107C142.753 508.347 142.695 508.582 142.592 508.8Z" fill="white"/>
<path d="M154.304 530.304C154.15 530.63 153.903 530.903 153.595 531.089C153.286 531.275 152.929 531.365 152.569 531.348C152.209 531.331 151.862 531.208 151.572 530.994C151.282 530.781 151.062 530.486 150.939 530.147C150.817 529.808 150.797 529.44 150.883 529.09C150.969 528.741 151.157 528.424 151.423 528.181C151.689 527.937 152.021 527.778 152.377 527.723C152.733 527.669 153.097 527.72 153.424 527.872C153.642 527.974 153.838 528.117 154 528.295C154.162 528.472 154.288 528.68 154.37 528.906C154.451 529.132 154.488 529.371 154.476 529.612C154.465 529.852 154.407 530.087 154.304 530.304Z" fill="white"/>
<path d="M148.208 542.64C148.054 542.966 147.807 543.239 147.499 543.425C147.19 543.611 146.833 543.701 146.473 543.684C146.113 543.667 145.766 543.544 145.476 543.33C145.186 543.116 144.966 542.822 144.843 542.483C144.721 542.144 144.701 541.776 144.787 541.426C144.873 541.076 145.061 540.76 145.327 540.517C145.593 540.273 145.925 540.114 146.281 540.059C146.637 540.004 147.001 540.056 147.328 540.208C147.546 540.31 147.742 540.453 147.904 540.631C148.066 540.808 148.192 541.015 148.274 541.241C148.355 541.467 148.392 541.707 148.38 541.947C148.369 542.188 148.311 542.423 148.208 542.64Z" fill="white"/>
<path d="M137.312 522.704C137.211 522.922 137.067 523.118 136.89 523.28C136.713 523.442 136.505 523.568 136.279 523.65C136.053 523.731 135.813 523.768 135.573 523.756C135.333 523.745 135.097 523.687 134.88 523.584C134.554 523.43 134.281 523.183 134.095 522.875C133.91 522.566 133.819 522.209 133.836 521.849C133.853 521.489 133.976 521.142 134.19 520.852C134.404 520.562 134.699 520.342 135.038 520.219C135.377 520.097 135.744 520.077 136.094 520.163C136.444 520.249 136.761 520.437 137.004 520.703C137.247 520.969 137.406 521.301 137.461 521.657C137.516 522.013 137.464 522.377 137.312 522.704Z" fill="white"/>
<path d="M120.144 538.336C120.039 538.554 119.892 538.749 119.712 538.909C119.532 539.07 119.321 539.194 119.093 539.273C118.865 539.353 118.624 539.386 118.383 539.372C118.142 539.359 117.906 539.297 117.688 539.192C117.471 539.087 117.276 538.94 117.115 538.76C116.955 538.58 116.831 538.37 116.751 538.142C116.672 537.914 116.638 537.672 116.652 537.431C116.666 537.19 116.727 536.954 116.832 536.736C117.044 536.297 117.422 535.96 117.883 535.8C118.343 535.639 118.849 535.668 119.288 535.88C119.727 536.093 120.064 536.47 120.225 536.931C120.385 537.392 120.356 537.897 120.144 538.336Z" fill="white"/>
<path d="M149.376 519.264C149.222 519.59 148.975 519.863 148.667 520.049C148.358 520.235 148.001 520.325 147.641 520.308C147.281 520.291 146.934 520.168 146.644 519.954C146.354 519.741 146.134 519.446 146.011 519.107C145.889 518.768 145.869 518.4 145.955 518.05C146.041 517.701 146.229 517.384 146.495 517.141C146.761 516.897 147.093 516.738 147.449 516.683C147.805 516.629 148.169 516.68 148.496 516.832C148.714 516.934 148.91 517.077 149.072 517.255C149.234 517.432 149.36 517.64 149.442 517.866C149.523 518.092 149.56 518.331 149.548 518.572C149.537 518.812 149.479 519.047 149.376 519.264Z" fill="white"/>
<path d="M143.28 532.8C143.126 533.125 142.879 533.398 142.571 533.584C142.262 533.77 141.905 533.86 141.545 533.843C141.185 533.826 140.838 533.703 140.548 533.489C140.258 533.276 140.038 532.981 139.915 532.642C139.793 532.303 139.773 531.935 139.859 531.586C139.945 531.236 140.133 530.919 140.399 530.676C140.665 530.433 140.997 530.273 141.353 530.219C141.709 530.164 142.073 530.216 142.4 530.368C142.618 530.469 142.814 530.612 142.976 530.79C143.138 530.967 143.264 531.175 143.346 531.401C143.427 531.627 143.464 531.867 143.452 532.107C143.441 532.347 143.383 532.582 143.28 532.8Z" fill="white"/>
<path d="M136.992 546.224C136.838 546.55 136.591 546.823 136.283 547.009C135.974 547.195 135.617 547.285 135.257 547.268C134.897 547.251 134.55 547.128 134.26 546.914C133.97 546.701 133.75 546.406 133.627 546.067C133.505 545.728 133.485 545.36 133.571 545.01C133.657 544.66 133.845 544.344 134.111 544.101C134.377 543.857 134.709 543.698 135.065 543.643C135.421 543.588 135.785 543.64 136.112 543.792C136.33 543.894 136.526 544.037 136.688 544.215C136.85 544.392 136.976 544.599 137.058 544.825C137.139 545.051 137.176 545.291 137.164 545.531C137.153 545.772 137.095 546.007 136.992 546.224Z" fill="white"/>
<path d="M142.512 556.384C142.304 556.821 141.932 557.158 141.477 557.323C141.021 557.488 140.52 557.466 140.08 557.264C139.863 557.159 139.668 557.012 139.507 556.831C139.346 556.651 139.223 556.441 139.143 556.213C139.064 555.985 139.03 555.743 139.044 555.502C139.058 555.261 139.119 555.025 139.224 554.808C139.329 554.59 139.476 554.396 139.656 554.235C139.836 554.074 140.047 553.95 140.275 553.871C140.503 553.792 140.744 553.758 140.985 553.772C141.227 553.785 141.463 553.847 141.68 553.952C142.109 554.168 142.436 554.544 142.591 554.998C142.747 555.453 142.718 555.95 142.512 556.384Z" fill="white"/>
<path d="M125.856 525.616C125.644 526.055 125.266 526.392 124.805 526.552C124.345 526.713 123.839 526.684 123.4 526.472C122.961 526.26 122.624 525.882 122.463 525.421C122.303 524.96 122.332 524.455 122.544 524.016C122.649 523.798 122.796 523.604 122.976 523.443C123.156 523.282 123.367 523.158 123.595 523.079C123.823 523 124.064 522.966 124.305 522.98C124.546 522.993 124.782 523.055 125 523.16C125.217 523.265 125.412 523.412 125.573 523.592C125.733 523.772 125.857 523.982 125.937 524.21C126.016 524.438 126.05 524.68 126.036 524.921C126.022 525.162 125.961 525.398 125.856 525.616Z" fill="white"/>
<path d="M131.344 535.456C131.19 535.782 130.943 536.055 130.635 536.24C130.326 536.426 129.969 536.516 129.609 536.5C129.249 536.483 128.902 536.36 128.612 536.146C128.322 535.932 128.102 535.637 127.979 535.298C127.857 534.959 127.837 534.592 127.923 534.242C128.009 533.892 128.197 533.575 128.463 533.332C128.729 533.089 129.061 532.93 129.417 532.875C129.773 532.82 130.137 532.872 130.464 533.024C130.682 533.125 130.878 533.269 131.04 533.446C131.202 533.623 131.328 533.831 131.41 534.057C131.491 534.283 131.528 534.523 131.516 534.763C131.505 535.003 131.447 535.238 131.344 535.456Z" fill="white"/>
<path d="M153.296 553.872C153.142 554.198 152.895 554.471 152.587 554.657C152.278 554.842 151.921 554.932 151.561 554.916C151.201 554.899 150.854 554.776 150.564 554.562C150.274 554.348 150.054 554.053 149.931 553.714C149.809 553.375 149.789 553.008 149.875 552.658C149.961 552.308 150.149 551.991 150.415 551.748C150.681 551.505 151.013 551.346 151.369 551.291C151.725 551.236 152.089 551.288 152.416 551.44C152.853 551.648 153.191 552.02 153.355 552.475C153.52 552.93 153.499 553.432 153.296 553.872Z" fill="white"/>
<path d="M125.616 548.624C125.462 548.95 125.215 549.223 124.907 549.409C124.598 549.594 124.241 549.684 123.881 549.667C123.521 549.651 123.174 549.528 122.884 549.314C122.594 549.1 122.374 548.805 122.251 548.466C122.129 548.127 122.109 547.76 122.195 547.41C122.281 547.06 122.469 546.743 122.735 546.5C123.001 546.257 123.333 546.098 123.689 546.043C124.045 545.988 124.409 546.04 124.736 546.192C124.954 546.293 125.15 546.437 125.312 546.614C125.474 546.791 125.6 546.999 125.682 547.225C125.763 547.451 125.8 547.691 125.788 547.931C125.777 548.171 125.719 548.406 125.616 548.624Z" fill="white"/>
<path d="M165.92 527.584C165.766 527.91 165.519 528.183 165.211 528.368C164.902 528.554 164.545 528.644 164.185 528.627C163.825 528.611 163.478 528.487 163.188 528.274C162.898 528.06 162.678 527.765 162.555 527.426C162.433 527.087 162.413 526.72 162.499 526.37C162.585 526.02 162.773 525.703 163.039 525.46C163.305 525.217 163.637 525.058 163.993 525.003C164.349 524.948 164.713 525 165.04 525.152C165.258 525.253 165.454 525.397 165.616 525.574C165.778 525.751 165.904 525.959 165.986 526.185C166.067 526.411 166.104 526.651 166.092 526.891C166.081 527.131 166.023 527.366 165.92 527.584Z" fill="white"/>
<path d="M159.84 540.576C159.686 540.902 159.439 541.175 159.131 541.361C158.822 541.546 158.465 541.637 158.105 541.62C157.745 541.603 157.398 541.48 157.108 541.266C156.818 541.052 156.598 540.757 156.475 540.418C156.353 540.079 156.333 539.712 156.419 539.362C156.505 539.012 156.693 538.695 156.959 538.452C157.225 538.209 157.557 538.05 157.913 537.995C158.269 537.94 158.633 537.992 158.96 538.144C159.178 538.245 159.374 538.389 159.536 538.566C159.698 538.743 159.824 538.951 159.906 539.177C159.987 539.403 160.024 539.643 160.012 539.883C160.001 540.123 159.943 540.359 159.84 540.576Z" fill="white"/>
<path d="M161.008 516.896C160.854 517.222 160.607 517.495 160.299 517.681C159.99 517.867 159.633 517.957 159.273 517.94C158.913 517.923 158.566 517.8 158.276 517.586C157.986 517.372 157.766 517.077 157.643 516.739C157.521 516.4 157.501 516.032 157.587 515.682C157.673 515.332 157.861 515.016 158.127 514.772C158.393 514.529 158.725 514.37 159.081 514.315C159.437 514.26 159.801 514.312 160.128 514.464C160.346 514.566 160.542 514.709 160.704 514.886C160.866 515.064 160.992 515.271 161.074 515.497C161.155 515.723 161.192 515.963 161.18 516.203C161.169 516.443 161.111 516.679 161.008 516.896Z" fill="white"/>
<path d="M173.84 512.848C173.686 513.174 173.439 513.447 173.131 513.633C172.822 513.819 172.465 513.909 172.105 513.892C171.745 513.875 171.398 513.752 171.108 513.538C170.818 513.324 170.598 513.03 170.475 512.691C170.353 512.352 170.333 511.984 170.419 511.634C170.505 511.284 170.693 510.968 170.959 510.725C171.225 510.481 171.557 510.322 171.913 510.267C172.269 510.212 172.633 510.264 172.96 510.416C173.178 510.518 173.374 510.661 173.536 510.839C173.698 511.016 173.824 511.223 173.906 511.449C173.987 511.675 174.024 511.915 174.012 512.155C174.001 512.396 173.943 512.631 173.84 512.848Z" fill="white"/>
<path d="M103.088 546.32C106.672 563.92 145.776 582.896 148.448 582.816C151.12 582.736 177.072 518.496 177.072 518.496C177.072 518.496 145.44 508.096 131.2 489.6C131.2 489.6 101.968 540.8 103.088 546.32Z" fill="#455A64"/>
<path d="M404.944 692.16H253.6C244.384 656.96 235.92 625.904 230.528 606.288C227.136 593.952 224.96 586.128 224.544 584.656C224.522 584.57 224.495 584.484 224.464 584.4H381.856L386.656 606.464C388.56 615.392 390.976 626.656 393.76 639.536C393.984 640.656 394.24 641.792 394.48 642.976C397.648 657.728 401.216 674.448 404.944 692.16Z" fill="#455A64"/>
<path d="M276.544 692.16H273.696C265.952 663.627 258.395 635.04 251.024 606.4L250.416 603.984C250.272 603.328 251.248 603.024 251.44 603.68C251.712 604.592 251.984 605.488 252.24 606.4C260.592 634.912 268.624 663.52 276.544 692.16Z" fill="#263238"/>
<path d="M369.6 584.656C368.366 592.135 366.569 599.511 364.224 606.72C362.464 612.448 360.336 618.64 357.936 625.024C357.424 626.48 356.848 627.888 356.336 629.328C348.704 648.768 338.736 668.576 328.432 677.984H328.352C327.144 679.139 325.826 680.174 324.416 681.072L315.648 686.496C315.658 686.538 315.658 686.582 315.648 686.624C315.648 687.152 315.248 689.056 314.752 692.128H167.024C163.248 657.92 171.12 625.92 177.984 605.856C180.386 598.603 183.251 591.511 186.56 584.624L369.6 584.656Z" fill="#455A64"/>
<path d="M352 669.648C342.717 674.746 333.155 679.318 323.36 683.344C320.752 684.464 318.144 685.568 315.488 686.64C315.328 686.64 315.168 686.784 315.008 686.832C312.725 687.781 310.437 688.693 308.144 689.568C305.904 690.432 303.68 691.328 301.408 692.16H296.416C299.856 690.432 303.456 688.96 306.96 687.36C311.824 685.227 316.704 683.093 321.6 680.96C323.824 680 326.048 679.024 328.256 678.032H328.336C335.968 674.64 343.568 671.248 351.424 668.432C352.208 668.048 352.72 669.232 352 669.648Z" fill="#263238"/>
<path d="M315.568 686.752C315.568 687.904 315.472 689.808 315.248 692.16H313.648C314.16 689.952 314.624 688.144 315.072 686.832C315.067 686.785 315.067 686.736 315.072 686.688C315.152 686.48 315.44 686.464 315.504 686.688C315.504 686.688 315.568 686.704 315.568 686.752Z" fill="#263238"/>
<path d="M200.848 593.856C198.848 597.856 197.04 601.856 195.36 606.048C185.171 631.103 181.323 658.286 184.16 685.184C184.432 687.52 184.768 689.84 185.12 692.16H182.56C181.55 685.404 180.962 678.59 180.8 671.76C180.272 649.169 184.673 626.734 193.696 606.016C195.584 601.712 197.68 597.488 199.968 593.376C200 593.319 200.042 593.268 200.093 593.226C200.145 593.185 200.204 593.154 200.267 593.136C200.33 593.117 200.396 593.111 200.461 593.118C200.527 593.125 200.59 593.145 200.648 593.176C200.706 593.208 200.757 593.251 200.798 593.302C200.84 593.353 200.87 593.412 200.889 593.475C200.907 593.538 200.913 593.604 200.906 593.67C200.899 593.735 200.88 593.799 200.848 593.856Z" fill="#263238"/>
<path d="M311.856 645.568C312 639.872 312.4 634.192 312.688 628.512C313.344 615.104 313.872 601.616 315.12 588.256C315.12 588.146 315.164 588.04 315.242 587.962C315.32 587.884 315.426 587.84 315.536 587.84C315.646 587.84 315.752 587.884 315.83 587.962C315.908 588.04 315.952 588.146 315.952 588.256C316.112 598.624 315.712 609.056 315.504 619.408C315.392 624.592 315.248 629.792 315.104 634.976C314.824 639.926 314.792 644.887 315.008 649.84C315.28 653.584 316.096 660.848 320.976 661.296C325.584 661.728 329.216 656.768 330.368 653.136C333.28 643.888 334.32 633.936 335.264 624.336C335.824 618.656 336.48 595.536 336.176 589.744C336.176 589.376 336.72 589.392 336.752 589.744C337.072 595.6 337.872 601.424 338.064 607.344C338.256 613.264 338.272 619.056 337.904 624.944C337.536 630.544 337.072 636.144 336.224 641.728C335.655 646.804 334.445 651.788 332.624 656.56C330.928 660.496 328.016 664.112 323.6 664.976C323.071 665.066 322.536 665.119 322 665.136C322 666.336 321.776 667.552 321.696 668.736C321.568 670.624 321.328 672.48 321.072 674.352C320.814 676.188 320.434 678.006 319.936 679.792C319.534 681.599 318.888 683.343 318.016 684.976C317.983 685.026 317.934 685.065 317.877 685.087C317.821 685.108 317.758 685.111 317.7 685.095C317.641 685.079 317.589 685.045 317.551 684.998C317.513 684.951 317.491 684.892 317.488 684.832C317.445 683.034 317.595 681.237 317.936 679.472C318.192 677.648 318.448 675.792 318.816 674C319.184 672.208 319.52 670.432 319.888 668.656C320.128 667.472 320.288 666.24 320.512 665.04C319.087 664.789 317.746 664.189 316.609 663.292C315.473 662.396 314.576 661.232 314 659.904C311.904 655.472 311.744 650.304 311.856 645.568Z" fill="#263238"/>
<path d="M309.136 388.32C328.224 412.24 403.072 497.12 444.672 505.04C472.688 510.4 562.688 464.592 582.4 448C590.4 441.216 545.392 374.064 534.4 376.768C522.496 379.696 457.728 422.752 449.312 422.256C440.896 421.76 374.608 384.496 334.4 368C310.24 358.016 298.384 374.864 309.136 388.32Z" fill="#D3766A"/>
<path d="M557.68 464C574.992 457.328 627.488 420.512 636.208 410.944C644.928 401.376 668.032 372.08 661.376 364.656C654.72 357.232 647.296 365.28 647.296 365.28C647.296 365.28 656.048 350.16 647.728 344.48C641.088 339.952 630 350.72 630 350.72C630 350.72 638.72 333.648 629.744 329.088C621.568 324.928 612.56 339.552 612.56 339.552C612.56 339.552 618.4 324.528 609.76 322.048C599.36 319.04 589.232 345.04 578.816 354.88C576.448 357.104 506.576 391.392 506.576 391.392L557.68 464Z" fill="#D3766A"/>
<path d="M612.176 338.8C602.576 357.504 598.096 364.96 581.776 376.928C581.456 377.152 581.776 377.68 582.096 377.472C599.088 367.2 605.072 358.736 613.072 339.072C613.504 338.16 612.624 337.936 612.176 338.8Z" fill="#263238"/>
<path d="M629.808 350.72C620.288 369.92 613.008 377.136 596.896 390.912C596.656 391.104 596.896 391.52 597.216 391.344C614.16 379.136 623.504 371.28 630.496 350.88C630.816 349.968 630.24 349.856 629.808 350.72Z" fill="#263238"/>
<path d="M646.496 365.968C635.936 383.856 628.56 392.656 611.184 404.016C611.095 404.067 611.03 404.151 611.003 404.25C610.976 404.349 610.989 404.455 611.04 404.544C611.091 404.633 611.175 404.699 611.274 404.726C611.373 404.753 611.479 404.739 611.568 404.688C630.4 394.816 639.712 383.888 647.008 366.288C647.504 365.152 647.152 364.8 646.496 365.968Z" fill="#263238"/>
<path d="M716.208 418.784C670.272 432.192 625.008 445.616 581.008 459.024C554.656 399.824 550.768 340.624 532.72 281.424C578.72 268 623.92 254.592 668.096 241.168C694.4 300.352 698.208 359.568 716.208 418.784Z" fill="white"/>
<path d="M716.208 418.784C693.307 425.589 670.619 432.384 648.144 439.168C625.669 445.952 603.36 452.731 581.216 459.504L580.768 459.648L580.544 459.168C554.08 399.968 550.144 340.768 531.952 281.568C531.872 281.312 531.808 281.056 531.728 280.8L532.48 280.576C578.48 267.232 623.68 253.888 667.856 240.576L668.384 240.416L668.624 240.96C681.744 270.64 689.216 300.32 695.664 330C702.112 359.68 707.344 389.2 716.208 418.784ZM716.208 418.784C707.072 389.168 701.472 359.584 694.848 329.92C688.224 300.256 680.736 270.832 667.648 241.296L668.4 241.68C624.288 255.168 579.024 268.672 533.024 282.16L533.552 281.168C551.52 340.368 555.312 399.648 581.552 458.88L580.896 458.544C602.912 451.909 625.2 445.275 647.76 438.64C670.32 432.005 693.136 425.387 716.208 418.784Z" fill="#263238"/>
<path d="M554.464 307.2C580.416 299.733 606.213 292.266 631.856 284.8C632.304 286.32 632.752 287.84 633.184 289.36C607.488 296.826 581.616 304.293 555.568 311.76C555.2 310.304 554.832 308.8 554.464 307.2Z" fill="#DBDBDB"/>
<path d="M557.216 318.784C583.296 311.317 609.259 303.85 635.104 296.384L636.304 300.944C610.427 308.41 584.411 315.877 558.256 323.344C557.92 321.824 557.568 320.304 557.216 318.784Z" fill="#DBDBDB"/>
<path d="M559.808 330.304C585.984 322.838 612.069 315.371 638.064 307.904C638.432 309.504 638.816 310.944 639.168 312.464C613.152 319.931 587.019 327.398 560.768 334.864C560.48 333.344 560.144 331.824 559.808 330.304Z" fill="#DBDBDB"/>
<path d="M562.304 341.808C600.704 330.886 638.987 319.958 677.152 309.024L678.256 313.6C640.112 324.512 601.696 335.44 563.28 346.368C562.944 344.848 562.624 343.328 562.304 341.808Z" fill="#DBDBDB"/>
<path d="M564.8 353.328C603.2 342.395 641.573 331.467 679.92 320.544C680.272 322.064 680.624 323.584 680.96 325.104C642.656 336.037 604.256 346.965 565.76 357.888C565.392 356.368 565.072 354.848 564.8 353.328Z" fill="#DBDBDB"/>
<path d="M567.216 364.8L682.416 332.032C682.752 333.632 683.088 335.072 683.408 336.592C645.008 347.52 606.608 358.432 568.208 369.36C567.872 367.872 567.552 366.4 567.216 364.8Z" fill="#DBDBDB"/>
<path d="M569.76 376.352C608.043 365.419 646.443 354.491 684.96 343.568C685.296 345.168 685.616 346.608 685.936 348.128C647.536 359.051 609.168 369.979 570.832 380.912C570.448 379.392 570.096 377.872 569.76 376.352Z" fill="#DBDBDB"/>
<path d="M572.432 387.856C610.56 376.928 648.96 366.016 687.376 355.088C687.712 356.608 688.032 358.128 688.352 359.648C649.952 370.581 611.685 381.504 573.552 392.416C573.168 390.896 572.8 389.376 572.432 387.856Z" fill="#DBDBDB"/>
<path d="M575.312 399.376C613.232 388.442 651.413 377.514 689.856 366.592C690.192 368.112 690.512 369.632 690.848 371.152C652.512 382.085 614.405 393.013 576.528 403.936C576.112 402.416 575.712 400.896 575.312 399.376Z" fill="#DBDBDB"/>
<path d="M578.448 410.88C616.08 399.968 654.069 389.046 692.416 378.112C692.768 379.712 693.104 381.152 693.472 382.672C655.264 393.6 617.28 404.528 579.776 415.456C579.328 413.92 578.88 412.4 578.448 410.88Z" fill="#DBDBDB"/>
<path d="M581.888 422.4C619.221 411.478 656.965 400.55 695.12 389.616C695.488 391.216 695.856 392.656 696.24 394.176C658.224 405.11 620.597 416.038 583.36 426.96C582.864 425.44 582.4 424 581.888 422.4Z" fill="#DBDBDB"/>
<path d="M585.712 433.92C622.64 422.997 660.08 412.069 698.032 401.136C698.432 402.656 698.832 404.176 699.248 405.696C661.488 416.618 624.187 427.546 587.344 438.48L585.712 433.92Z" fill="#DBDBDB"/>
<path d="M645.072 308.64C643.36 296.208 641.264 283.776 638.464 271.344C647.216 280.256 655.584 289.168 663.728 298.08L661.328 300.272C655.632 294 649.824 287.728 643.84 281.456C645.584 290.336 647.04 299.2 648.24 308.08L645.072 308.64Z" fill="#8A5A8E"/>
<path d="M642.784 302.176L640.928 299.632C646.624 295.365 652.267 291.099 657.856 286.832L659.776 289.376C654.176 293.664 648.512 297.931 642.784 302.176Z" fill="#8A5A8E"/>
<path d="M637.792 266.464C635.16 268.414 632.826 270.737 630.864 273.36C626.997 278.675 624.974 285.109 625.104 291.68C625.131 294.867 625.829 298.013 627.152 300.912C628.514 303.71 630.493 306.161 632.94 308.082C635.387 310.003 638.239 311.343 641.28 312C647.392 313.2 653.936 311.008 659.408 307.392C665.011 304.045 669.258 298.835 671.408 292.672C672.418 289.65 672.732 286.438 672.328 283.277C671.923 280.116 670.81 277.087 669.072 274.416C667.156 271.776 664.682 269.59 661.824 268.016C658.969 266.365 655.794 265.345 652.512 265.024C649.252 264.694 645.96 265.15 642.912 266.352C639.887 267.599 637.099 269.358 634.672 271.552C635.795 270.342 637.003 269.213 638.288 268.176C639.625 267.181 641.056 266.319 642.56 265.6C645.651 264.099 649.061 263.374 652.496 263.488C656.106 263.665 659.636 264.613 662.849 266.269C666.061 267.925 668.882 270.251 671.12 273.088C673.264 276.021 674.644 279.441 675.136 283.04C675.642 286.594 675.364 290.214 674.32 293.648C671.987 300.546 667.288 306.395 661.056 310.16C658.043 312.147 654.739 313.653 651.264 314.624C647.776 315.616 644.104 315.775 640.544 315.088C637.068 314.356 633.833 312.76 631.136 310.448C628.465 308.177 626.324 305.348 624.864 302.16C622.299 295.556 622.339 288.224 624.976 281.648C627.388 275.272 631.911 269.913 637.792 266.464Z" fill="#8A5A8E"/>
<path d="M655.344 278.4C653.509 275.882 651.637 273.37 649.728 270.864L652.24 269.008C654.16 271.514 656.048 274.026 657.904 276.544L655.344 278.4Z" fill="#8A5A8E"/>
<path d="M651.2 277.616L649.296 274.992L656.496 269.808C657.152 270.688 657.792 271.568 658.448 272.432L651.2 277.616Z" fill="#8A5A8E"/>
<path d="M506.576 391.408C506.576 391.408 523.584 373.984 531.232 365.328C538.88 356.672 557.152 329.2 567.072 329.856C578.272 330.592 570.176 359.536 556.624 375.088C556.624 375.088 574.624 403.792 562.32 419.36C559.648 422.72 540.256 433.376 535.44 432.384L506.576 391.408Z" fill="#D3766A"/>
<path d="M555.808 377.168C563.216 388.08 568.368 404.704 563.056 416.752C563.031 416.82 563.031 416.895 563.057 416.964C563.083 417.032 563.132 417.089 563.196 417.123C563.26 417.158 563.334 417.169 563.406 417.154C563.477 417.138 563.54 417.098 563.584 417.04C571.024 404.896 565.184 385.6 558.048 376.24C556.656 374.4 553.888 374.4 555.808 377.168Z" fill="#263238"/>
<path d="M506.576 391.408L557.68 464C557.83 468.609 556.566 473.154 554.058 477.024C551.549 480.894 547.917 483.903 543.648 485.648C528.4 492.32 465.328 515.072 440.352 506.64C415.376 498.208 344.128 436.8 313.392 395.984C282.656 355.168 328.08 363.28 336.736 367.184C345.392 371.088 447.008 418.976 450.624 418.896C454.24 418.816 477.824 400.88 489.024 395.312C500.224 389.744 506.576 391.408 506.576 391.408Z" fill="#8A5A8E"/>
<path opacity="0.1" d="M476.8 506.08C462.4 508.72 449.072 509.584 440.384 506.64C415.392 498.192 344.144 436.816 313.408 395.968C311.456 393.392 309.824 390.992 308.448 388.816L476.8 506.08Z" fill="black"/>
<path d="M537.776 478.992C533.088 473.248 529.184 466.864 525.104 460.72C521.024 454.576 517.104 448.592 513.152 442.48C505.152 430.176 496.88 417.952 489.728 405.184C489.706 405.125 489.704 405.061 489.723 405.002C489.743 404.942 489.782 404.891 489.835 404.858C489.887 404.824 489.95 404.809 490.012 404.816C490.074 404.823 490.132 404.851 490.176 404.896C499.408 416.528 507.456 429.104 515.552 441.472C519.616 447.669 523.589 453.92 527.472 460.224C531.415 466.199 535.02 472.39 538.272 478.768C538.416 479.072 537.968 479.232 537.776 478.992Z" fill="#263238"/>
<g opacity="0.1">
<path d="M521.392 494.032L515.616 496C515.314 493.88 515.169 491.741 515.184 489.6C515.184 485.552 515.504 481.6 515.456 477.744C515.47 473.887 515.094 470.038 514.336 466.256C513.563 462.549 512.265 458.972 510.48 455.632C510.048 454.8 509.552 454.032 509.088 453.232C508.624 452.432 508.096 451.76 507.568 451.024C506.432 449.568 505.248 448.064 504.016 446.592L496.656 437.648C494.16 434.64 491.696 431.616 489.264 428.528C486.832 425.44 484.464 422.24 482.272 418.928C479.997 415.505 478.032 411.885 476.4 408.112C475.839 406.733 475.359 405.323 474.96 403.888C477.024 402.528 479.056 401.216 480.976 400C481.61 401.726 482.342 403.414 483.168 405.056C484.935 408.29 486.884 411.421 489.008 414.432C493.296 420.672 497.808 426.96 502.336 433.312C504.592 436.512 506.912 439.712 509.024 443.024C510.08 444.704 511.136 446.4 512.08 448.24C512.544 449.168 513.008 450.08 513.424 451.104C513.84 452.128 514.144 453.056 514.432 454.048C516.8 461.92 517.152 469.856 518.064 477.616C518.682 483.176 519.796 488.67 521.392 494.032Z" fill="black"/>
<path d="M501.2 500.288C499.6 500.736 498.096 501.168 496.512 501.584C494.592 494.96 494.48 488.432 494.336 481.984V472C494.336 470.4 494.336 468.72 494.208 467.104C494.173 465.538 494.018 463.976 493.744 462.432C493.687 462.083 493.596 461.74 493.472 461.408L493.072 460.32L492.592 459.264C492.416 458.912 492.208 458.576 492.032 458.224C491.22 456.845 490.253 455.562 489.152 454.4C486.852 452.064 484.241 450.055 481.392 448.432C479.968 447.568 478.496 446.832 477.008 446.048L472.512 443.76C469.294 442.261 466.389 440.166 463.952 437.584C463.348 436.862 462.813 436.086 462.352 435.264C462.112 434.848 461.904 434.4 461.696 433.968L461.2 432.688C460.624 431 460.19 429.266 459.904 427.504C459.361 424.098 459.157 420.647 459.296 417.2C459.296 416.192 459.392 415.184 459.472 414.176L462.672 412.064C462.672 413.776 462.672 415.472 462.816 417.168C462.947 420.39 463.311 423.599 463.904 426.768C464.214 428.289 464.631 429.786 465.152 431.248L465.568 432.304C465.728 432.608 465.84 432.928 466.016 433.248C466.351 433.878 466.73 434.482 467.152 435.056C469.108 437.52 471.39 439.705 473.936 441.552C476.544 443.552 479.376 445.36 482.176 447.2C485.07 448.961 487.824 450.94 490.416 453.12C491.746 454.253 492.962 455.512 494.048 456.88C494.595 457.583 495.102 458.314 495.568 459.072L496.224 460.24C496.441 460.67 496.628 461.114 496.784 461.568C497.341 463.254 497.732 464.991 497.952 466.752C498.224 468.448 498.368 470.144 498.512 471.824C498.784 475.184 498.944 478.512 499.168 481.808C499.392 485.104 499.632 488.4 499.952 491.632C500.172 494.543 500.589 497.435 501.2 500.288Z" fill="black"/>
</g>
<path d="M170.336 616.416C170.496 616.624 388.848 606.416 390.272 605.072C390.928 604.448 393.76 592.016 390.416 574.752C380.384 522.992 350.32 417.264 323.808 372.528C317.184 361.328 287.328 344.864 265.664 366.016C221.744 408.896 187.264 518.016 173.68 577.952C167.024 607.248 169.44 615.168 170.336 616.416Z" fill="#8A5A8E"/>
<g opacity="0.1">
<path d="M389.44 569.808C388.784 569.808 388.128 569.808 387.488 569.904C381.281 570.498 375.115 571.465 369.024 572.8C356.464 575.36 343.68 578.24 330.8 581.104C324.4 582.528 317.904 584.032 311.264 585.12C307.936 585.648 304.592 586.176 301.12 586.432C299.36 586.544 297.632 586.672 295.744 586.64C293.856 586.608 292.256 586.464 290.512 586.256C276.672 584.768 264.08 580.08 251.36 576.384C238.64 572.688 225.52 570.16 213.84 570.208C210.96 570.208 207.856 570.448 204.736 570.736C201.616 571.024 198.496 571.488 195.344 571.952C189.056 572.96 182.704 574.224 176.368 575.6L174.08 576.112C174.848 572.752 175.68 569.232 176.592 565.6C182.084 563.786 187.671 562.274 193.328 561.072C196.656 560.347 200.037 559.771 203.472 559.344C205.2 559.136 206.928 558.96 208.672 558.864C210.483 558.744 212.301 558.744 214.112 558.864C221.181 559.344 228.107 561.089 234.56 564.016C240.864 566.64 246.752 569.744 252.832 572.256C258.837 574.826 265.088 576.778 271.488 578.08C277.781 579.322 284.219 579.662 290.608 579.088C292.208 578.976 293.808 578.736 295.264 578.528C296.72 578.32 298.192 577.936 299.696 577.584C302.736 576.768 305.84 575.984 308.928 574.992L327.76 569.408C334.064 567.504 340.432 565.648 346.848 563.904C353.264 562.16 359.792 560.608 366.464 559.376C373.149 558.108 379.933 557.434 386.736 557.36C387.728 561.712 388.624 565.888 389.44 569.808Z" fill="black"/>
<path d="M379.92 529.216C375.474 527.636 370.932 526.343 366.32 525.344C363.746 524.811 361.136 524.468 358.512 524.32H356.608C356.016 524.32 355.44 524.32 354.848 524.4C353.643 524.516 352.445 524.709 351.264 524.976C346.138 526.403 341.23 528.519 336.672 531.264C331.872 534.016 327.072 537.216 322.432 540.4C317.773 543.741 312.869 546.726 307.76 549.328C305.118 550.647 302.36 551.719 299.52 552.528C298.066 552.919 296.592 553.228 295.104 553.456L292.8 553.6C291.985 553.656 291.167 553.656 290.352 553.6C287.357 553.361 284.393 552.825 281.504 552C278.688 551.296 275.952 550.4 273.248 549.52C267.824 547.728 262.528 545.792 257.248 543.952C251.968 542.112 246.672 540.32 241.424 538.688C236.323 537.015 231.103 535.732 225.808 534.848C223.335 534.475 220.823 534.421 218.336 534.688C215.718 534.985 213.124 535.472 210.576 536.144C205.275 537.559 200.069 539.311 194.992 541.392C190.416 543.248 185.861 545.232 181.328 547.344C181.824 545.504 182.336 543.648 182.928 541.76C186.128 539.808 189.376 537.963 192.672 536.224C197.817 533.497 203.166 531.175 208.672 529.28C211.526 528.334 214.446 527.601 217.408 527.088C220.509 526.548 223.668 526.43 226.8 526.736C238.96 527.952 249.664 532.24 260.192 536.448L275.808 542.848C278.384 543.92 280.976 544.928 283.536 545.904C285.997 546.873 288.527 547.659 291.104 548.256C291.695 548.38 292.294 548.466 292.896 548.512L294.848 548.592H296.816C297.488 548.592 298.144 548.464 298.8 548.4C301.484 548.047 304.119 547.392 306.656 546.448C311.801 544.388 316.645 541.644 321.056 538.288C323.312 536.688 325.456 534.816 327.648 533.04L334.176 527.52C338.608 523.904 343.376 520.224 349.456 518.272C350.985 517.764 352.561 517.41 354.16 517.216C354.976 517.104 355.76 517.088 356.624 517.04H358.944C361.955 517.253 364.942 517.724 367.872 518.448C371.326 519.27 374.716 520.339 378.016 521.648L379.92 529.216Z" fill="black"/>
</g>
<path d="M242.736 371.2C171.456 401.424 116.112 427.744 124.144 455.136C127.344 465.888 145.904 494.896 169.808 494.864C188.592 494.864 222.08 464.72 260.24 412C280 384.72 287.744 352.096 242.736 371.2Z" fill="#8A5A8E"/>
<path d="M255.376 426.464C252.336 428.976 249.312 431.552 246.352 434.176L248.256 431.968C253.36 425.92 258.4 419.824 263.44 413.728C263.536 413.6 263.328 413.44 263.216 413.568C253.616 423.776 244.016 433.888 234.304 444.064C224.592 454.24 199.264 480.016 193.104 485.072C192.976 485.184 193.104 485.392 193.264 485.296C198.832 480.944 214.464 467.856 219.456 462.976C226.997 455.594 234.245 447.978 241.2 440.128C246.275 435.945 251.119 431.49 255.712 426.784C255.888 426.608 255.584 426.288 255.376 426.464Z" fill="#263238"/>
<path d="M149.632 478.288C118.464 465.488 98.272 370.944 90.624 307.312C89.168 295.2 184.912 283.536 185.024 296.576C185.408 371.008 183.776 492.272 149.632 478.288Z" fill="#D3766A"/>
<path d="M78.592 257.712C79.152 278.016 96.544 328.848 104.56 337.152C112.576 345.456 173.36 316.352 176.704 305.152C180.048 293.952 182.928 227.36 169.536 211.552C156.144 195.744 78 236.688 78.592 257.712Z" fill="#D3766A"/>
<path d="M185.264 240C179.952 249.36 171.968 237.744 171.968 237.744C171.968 237.744 179.44 257.232 170.24 264.768C161.344 272 152.176 257.632 151.52 256.608C151.904 257.648 158.304 275.808 148.32 282.352C137.888 289.216 131.168 273.216 130.72 272.176C130.72 273.28 131.312 287.712 122.544 291.008C107.488 296.672 105.12 259.776 94.992 251.584C94.992 251.584 79.168 258.944 78.608 259.296C78.608 259.296 75.648 232.48 87.44 219.424C89.124 217.496 91.4175 216.204 93.9385 215.761C96.4596 215.319 99.0562 215.753 101.296 216.992C101.296 216.992 99.104 205.792 106.832 200.336C110.8 197.536 118.816 201.424 118.816 201.424C118.816 201.424 117.424 192.384 124.592 187.952C130.32 184.4 137.392 188.848 137.392 188.848C137.392 188.848 140.08 179.552 147.104 177.808C161.296 174.24 196.608 219.904 185.264 240Z" fill="#D3766A"/>
<path d="M138.656 189.328C138.639 189.298 138.632 189.264 138.636 189.23C138.64 189.196 138.654 189.164 138.677 189.139C138.701 189.114 138.731 189.097 138.765 189.091C138.798 189.084 138.833 189.089 138.864 189.104C154.144 201.28 167.2 219.344 172.464 238.272C172.64 238.896 171.696 239.456 171.376 238.8C162.224 220.32 152.624 204.64 138.656 189.328Z" fill="#263238"/>
<path d="M118.688 201.072C118.544 200.912 118.816 200.656 119.008 200.8C134.688 213.44 148.832 234.192 152.32 256.8C152.448 257.568 151.776 258.4 151.568 257.504C148.112 242.624 131.328 214.8 118.688 201.072Z" fill="#263238"/>
<path d="M130.4 273.792C126.208 252.304 115.552 234.32 101.952 217.424C101.776 217.2 102.112 216.976 102.304 217.12C111.216 223.52 118.752 235.248 123.856 244.832C128.768 253.618 131.299 263.534 131.2 273.6C131.2 274.048 130.48 274.256 130.4 273.792Z" fill="#263238"/>
<path d="M171.968 237.696C173.055 241.562 173.783 245.52 174.144 249.52C174.637 253.398 174.085 257.336 172.544 260.928C171.766 262.543 170.414 263.81 168.752 264.48C167.069 265.139 165.246 265.354 163.456 265.104C161.692 264.717 160.031 263.96 158.58 262.885C157.13 261.809 155.923 260.439 155.04 258.864L150.4 251.36L152.16 260.016C152.966 263.856 153.144 267.8 152.688 271.696C152.192 275.488 150.688 279.136 147.792 281.056C146.452 282.085 144.801 282.623 143.113 282.583C141.424 282.542 139.801 281.924 138.512 280.832C135.677 278.326 133.529 275.137 132.272 271.568L128.448 261.84L128.864 272.24C128.994 275.135 128.747 278.034 128.128 280.864C127.651 283.569 126.387 286.073 124.496 288.064C123.604 288.922 122.491 289.514 121.281 289.774C120.072 290.034 118.814 289.952 117.648 289.536C115.185 288.218 113.149 286.225 111.776 283.792C108.762 278.564 106.162 273.107 104 267.472C102.8 264.656 101.584 261.84 100.24 259.072C99.0403 256.219 97.252 253.651 94.9921 251.536C96.9746 253.847 98.4905 256.521 99.4561 259.408C100.576 262.24 101.568 265.136 102.56 268.032C104.408 273.943 106.814 279.665 109.744 285.12C111.284 288.105 113.657 290.579 116.576 292.24C118.262 292.965 120.124 293.182 121.932 292.863C123.739 292.545 125.415 291.706 126.752 290.448C129.199 288.057 130.872 284.986 131.552 281.632C132.288 278.488 132.611 275.26 132.512 272.032L129.12 272.704C130.54 276.953 133.051 280.754 136.4 283.728C138.301 285.329 140.699 286.217 143.184 286.24C145.622 286.179 147.985 285.388 149.968 283.968C154.016 281.152 155.68 276.368 156.16 272.128C156.608 267.848 156.343 263.522 155.376 259.328L152.48 260.496C153.652 262.407 155.227 264.039 157.095 265.277C158.963 266.515 161.08 267.33 163.296 267.664C165.526 267.866 167.77 267.486 169.808 266.56C171.889 265.58 173.539 263.873 174.448 261.76C176.208 257.68 175.84 253.392 175.28 249.392C174.618 245.382 173.507 241.459 171.968 237.696Z" fill="#263238"/>
<path d="M178.592 309.44C178.592 309.44 227.968 219.04 181.792 217.84C170.592 217.552 126.096 235.6 129.312 244.608C133.472 256.256 153.312 252.688 165.536 248.464C165.536 248.464 150.928 274.192 165.808 289.712C171.352 295.362 175.7 302.072 178.592 309.44Z" fill="#D3766A"/>
<path d="M184.992 217.792C180.595 217.62 176.196 218.095 171.936 219.2C167.646 220.185 163.428 221.463 159.312 223.024C151.005 226.015 142.974 229.725 135.312 234.112C133.287 235.278 131.434 236.722 129.808 238.4C128.881 239.377 128.182 240.546 127.76 241.824C127.521 242.53 127.408 243.271 127.424 244.016C127.444 244.747 127.579 245.471 127.824 246.16C128.74 248.638 130.503 250.712 132.8 252.016C134.938 253.142 137.255 253.889 139.648 254.224C144.182 254.77 148.776 254.537 153.232 253.536C157.582 252.639 161.86 251.425 166.032 249.904L164.224 247.68C162.667 250.679 161.397 253.818 160.432 257.056C159.442 260.255 158.783 263.547 158.464 266.88C158.185 270.225 158.39 273.593 159.072 276.88C159.758 280.13 161.056 283.219 162.896 285.984C161.462 283.061 160.526 279.919 160.128 276.688C159.78 273.491 159.866 270.262 160.384 267.088C160.87 263.927 161.674 260.823 162.784 257.824C163.872 254.836 165.232 251.955 166.848 249.216L168.88 245.872L165.04 247.008C160.969 248.315 156.816 249.352 152.608 250.112C148.518 250.944 144.32 251.111 140.176 250.608C136.288 250.016 132.288 248.192 131.2 245.008C129.984 242.288 133.68 239.232 137.12 237.008C140.738 234.718 144.477 232.624 148.32 230.736C152.176 228.752 156.064 226.832 160.032 225.12C168.128 221.872 176.272 218.48 184.992 217.792Z" fill="#263238"/>
<path d="M188.8 314.96L89.232 336.72C89.232 336.72 82.672 355.6 88.464 375.2C99.456 412.384 132.24 492.208 158.688 490.4C187.328 488.4 194.288 388.624 193.888 339.76C193.6 323.2 188.8 314.96 188.8 314.96Z" fill="#8A5A8E"/>
<g opacity="0.1">
<path d="M193.776 353.792C193.776 355.888 193.776 358.048 193.632 360.192C191.232 361.392 188.832 362.528 186.24 363.504C184.368 364.24 182.448 364.912 180.496 365.488C179.504 365.776 178.512 366.064 177.504 366.288C176.449 366.538 175.381 366.725 174.304 366.848C170.132 367.25 165.922 366.903 161.872 365.824C157.952 364.912 154.208 363.664 150.416 362.8C146.672 361.88 142.845 361.344 138.992 361.2C135.218 361.091 131.447 361.516 127.792 362.464C126.896 362.688 125.984 362.976 125.136 363.248C124.288 363.52 123.536 363.872 122.64 364.224C120.96 364.992 119.232 365.824 117.504 366.64L107.088 371.728C103.6 373.44 100.064 375.152 96.4961 376.784C94.3361 377.808 92.1281 378.752 89.8881 379.664C89.3921 378.064 88.9281 376.576 88.4961 375.12C88.1601 374.016 87.8721 372.912 87.6481 371.808C93.1041 369.664 98.6241 367.424 104.16 365.168C107.792 363.728 111.392 362.208 115.168 360.928C117.056 360.304 118.944 359.664 120.944 359.184C121.952 358.944 122.96 358.704 124.144 358.544C125.328 358.384 126.192 358.304 127.216 358.256C135.44 357.776 143.216 359.28 150.992 360.192C158.449 361.234 166.015 361.234 173.472 360.192C175.072 359.904 176.928 359.472 178.72 358.992C180.512 358.512 182.288 357.952 184.08 357.392C187.2 356.304 190.512 355.088 193.776 353.792Z" fill="black"/>
<path d="M193.232 371.2C193.232 372.352 193.136 373.504 193.072 374.672C191.76 375.776 190.432 376.848 189.056 377.872C186.331 379.952 183.453 381.823 180.448 383.472C178.9 384.294 177.296 385.005 175.648 385.6C173.891 386.209 172.062 386.585 170.208 386.72C162.992 387.184 156.352 385.728 149.792 384.304L140.064 382.064C138.464 381.696 136.864 381.36 135.264 381.04C133.735 380.716 132.184 380.502 130.624 380.4C130.272 380.376 129.92 380.376 129.568 380.4L128.416 380.544L127.264 380.768C126.896 380.768 126.512 380.976 126.128 381.072C124.545 381.564 123.025 382.241 121.6 383.088C118.788 384.778 116.225 386.851 113.984 389.248C112.816 390.432 111.744 391.696 110.64 392.944L107.44 396.8C105.238 399.584 102.522 401.92 99.4401 403.68C99.1165 403.861 98.7795 404.016 98.4321 404.144C97.9361 402.848 97.4561 401.568 96.9761 400.288C97.2161 400.192 97.4721 400.112 97.7121 400C100.558 398.667 103.212 396.956 105.6 394.912C108.16 392.832 110.576 390.512 113.008 388.208C115.401 385.802 117.973 383.582 120.704 381.568C122.111 380.544 123.611 379.655 125.184 378.912C126 378.544 126.784 378.24 127.68 377.952L128.976 377.584C129.424 377.488 129.952 377.392 130.4 377.344C132.167 377.175 133.945 377.175 135.712 377.344C137.424 377.488 139.104 377.728 140.768 377.984C144.096 378.512 147.376 379.12 150.64 379.68C153.904 380.24 157.152 380.768 160.368 381.2C163.503 381.68 166.669 381.921 169.84 381.92C171.323 381.894 172.796 381.679 174.224 381.28C175.717 380.854 177.177 380.319 178.592 379.68C181.548 378.345 184.413 376.816 187.168 375.104C189.216 373.899 191.237 372.598 193.232 371.2Z" fill="black"/>
</g>
<path d="M187.568 341.76C138.32 355.584 102.768 362 95.84 363.072C95.8019 363.072 95.7652 363.057 95.7382 363.03C95.7112 363.003 95.696 362.966 95.696 362.928C95.696 362.89 95.7112 362.853 95.7382 362.826C95.7652 362.799 95.8019 362.784 95.84 362.784C130.064 352.288 184.208 341.44 187.536 341.168C187.604 341.18 187.666 341.214 187.712 341.265C187.758 341.317 187.785 341.382 187.788 341.451C187.792 341.52 187.772 341.588 187.732 341.644C187.692 341.7 187.634 341.741 187.568 341.76Z" fill="#263238"/>
<path d="M192.416 400.96C191.248 410.288 188.592 425.088 186.448 434.24C186.304 434.816 186.16 435.392 186.032 435.968C186.64 439.25 186.945 442.582 186.944 445.92C186.944 449.824 186.608 453.68 186.208 457.552C186.208 457.712 185.936 457.696 185.952 457.552C186.208 453.699 186.176 449.832 185.856 445.984C185.68 443.696 185.488 441.392 185.296 439.088C183.2 447.824 180.992 456.56 178.272 465.12C178.272 465.28 177.984 465.12 178.032 465.024C180.08 455.728 182.272 446.448 183.984 437.088C185.696 427.728 189.616 405.76 191.248 396.464C192.544 389.088 192.784 398.032 192.416 400.96Z" fill="#263238"/>
<path d="M283.2 362.096C284.368 365.504 303.232 386.544 319.104 384.24C324.288 383.472 321.392 355.072 321.392 355.072L321.664 352.928L325.376 322.88L283.408 301.648C283.408 301.648 282.704 360.64 283.2 362.096Z" fill="#D3766A"/>
<path d="M325.344 322.896L321.6 352.912L321.344 355.072C321.344 355.072 321.856 360.224 322.064 366.176C300.016 365.072 288.464 349.712 283.024 338.864C283.12 321.824 283.36 301.648 283.36 301.648L325.344 322.896Z" fill="#263238"/>
<path d="M372.144 271.681C387.472 334.689 351.456 350.976 337.856 354.272C325.52 357.248 283.136 365.84 261.392 304.752C239.648 243.664 264.096 216.624 291.952 208.304C319.808 199.984 356.8 208.657 372.144 271.681Z" fill="#D3766A"/>
<path d="M354.048 273.488C352.553 273.509 351.057 273.45 349.568 273.312C347.985 273.475 346.393 273.109 345.04 272.272C344.665 271.925 344.416 271.463 344.332 270.959C344.248 270.455 344.334 269.937 344.576 269.488C345.179 268.667 345.993 268.025 346.93 267.628C347.868 267.231 348.895 267.094 349.904 267.232C351.99 267.175 354.021 267.9 355.6 269.264C355.941 269.596 356.179 270.019 356.284 270.483C356.39 270.948 356.358 271.432 356.194 271.879C356.03 272.326 355.74 272.715 355.359 273.001C354.978 273.286 354.523 273.455 354.048 273.488Z" fill="#263238"/>
<path d="M309.216 283.088C310.634 282.625 312.028 282.091 313.392 281.488C314.936 281.116 316.315 280.245 317.312 279.008C317.555 278.557 317.64 278.038 317.553 277.533C317.466 277.028 317.212 276.567 316.832 276.224C315.99 275.652 315.01 275.316 313.994 275.252C312.978 275.187 311.964 275.396 311.056 275.856C309.07 276.498 307.393 277.855 306.352 279.664C306.154 280.089 306.081 280.561 306.141 281.026C306.202 281.49 306.394 281.928 306.695 282.287C306.995 282.647 307.392 282.913 307.839 283.055C308.285 283.197 308.763 283.208 309.216 283.088Z" fill="#263238"/>
<path d="M328.192 326.608C329.36 327.52 330.56 328.816 332.16 328.784C333.791 328.581 335.362 328.036 336.768 327.184C336.797 327.173 336.829 327.17 336.86 327.176C336.89 327.183 336.918 327.198 336.941 327.22C336.963 327.242 336.978 327.27 336.984 327.301C336.99 327.331 336.988 327.363 336.976 327.392C336.442 328.322 335.666 329.089 334.731 329.613C333.795 330.137 332.736 330.398 331.664 330.368C330.743 330.236 329.883 329.832 329.193 329.208C328.503 328.584 328.015 327.768 327.792 326.864C327.696 326.608 328 326.4 328.192 326.608Z" fill="#263238"/>
<path d="M344.096 316.128C342.949 319.015 341.082 321.56 338.672 323.52C337.319 324.527 335.686 325.086 334 325.12C330.304 325.216 329.312 322.08 329.2 319.2C329.137 317.665 329.26 316.129 329.568 314.624C334.127 316.661 339.217 317.188 344.096 316.128Z" fill="white"/>
<path d="M341.888 320.208C341.712 320.448 341.52 320.72 341.312 320.96C340.148 321.096 338.972 321.096 337.808 320.96C339.2 320.704 340.56 320.464 341.888 320.208Z" fill="#DBDBDB"/>
<path d="M334.096 320.656C333.197 320.664 332.3 320.567 331.424 320.368C330.66 320.17 329.915 319.902 329.2 319.568C329.2 319.472 329.2 319.344 329.2 319.248C329.2 319.152 329.2 318.928 329.2 318.768C330.791 319.499 332.426 320.13 334.096 320.656Z" fill="#DBDBDB"/>
<path d="M343.792 307.84C343.792 307.84 345.76 314.24 346.272 317.264C346.272 317.552 345.6 317.808 344.576 318.032C344.576 318.032 344.496 318.032 344.448 318.032C341.894 318.948 339.137 319.145 336.479 318.6C333.821 318.055 331.364 316.79 329.376 314.944C329.308 314.893 329.263 314.817 329.251 314.733C329.239 314.649 329.261 314.563 329.312 314.496C329.363 314.428 329.439 314.383 329.523 314.371C329.607 314.359 329.692 314.381 329.76 314.432C334.121 316.46 339.021 317.021 343.728 316.032C343.728 315.152 339.952 305.152 340.448 305.152C342.544 305.152 346.288 305.456 347.68 305.568C346.48 301.408 342.512 289.776 340.352 282.192C340.224 281.728 340.944 281.44 341.12 281.872C345.068 290.235 348.457 298.851 351.264 307.664C351.472 308.4 345.104 308.144 343.792 307.84Z" fill="#263238"/>
<path d="M312.72 294.88C312.741 293.748 313.067 292.642 313.664 291.68C314.017 291.178 314.468 290.752 314.991 290.431C315.514 290.109 316.097 289.897 316.704 289.808C317.326 289.734 317.957 289.808 318.546 290.022C319.135 290.235 319.666 290.584 320.096 291.04C320.839 291.849 321.387 292.818 321.696 293.872C321.862 294.504 321.991 295.145 322.08 295.792C322.269 297.14 322.149 298.513 321.728 299.808C321.655 298.825 321.473 297.854 321.184 296.912C320.938 296.065 320.634 295.236 320.272 294.432C319.488 292.832 318.304 291.504 316.944 291.76C315.584 292.016 314.608 293.232 314.256 294.96C313.958 296.822 313.84 298.708 313.904 300.592C313.082 298.802 312.677 296.849 312.72 294.88Z" fill="#263238"/>
<path d="M356.304 286.4C355.861 285.375 355.148 284.49 354.24 283.84C353.725 283.505 353.147 283.279 352.542 283.177C351.936 283.075 351.316 283.099 350.72 283.248C350.116 283.412 349.558 283.716 349.094 284.136C348.63 284.555 348.271 285.079 348.048 285.664C347.662 286.684 347.525 287.781 347.648 288.864C347.721 289.513 347.845 290.155 348.016 290.784C348.334 292.109 348.965 293.338 349.856 294.368C349.544 293.435 349.345 292.468 349.264 291.488C349.192 290.604 349.192 289.716 349.264 288.832C349.36 287.024 349.968 285.392 351.328 285.12C352.688 284.848 354.048 285.584 355.04 287.12C356.017 288.734 356.837 290.438 357.488 292.208C357.562 290.205 357.156 288.214 356.304 286.4Z" fill="#263238"/>
<path d="M255.152 310.4C274.432 310.608 283.104 287.12 277.552 268.976C277.552 268.976 329.008 272.72 329.024 231.6C332.938 236.928 338.103 241.211 344.063 244.071C350.023 246.931 356.595 248.281 363.2 248L369.808 262.768C374.96 260.944 379.648 245.744 366.144 234.816C366.144 234.816 364.064 214.448 348.272 203.072C343.997 199.793 338.866 197.818 333.495 197.387C328.124 196.955 322.744 198.085 318 200.64C308.733 194.737 297.532 192.671 286.768 194.88C268.176 198.4 261.44 216 261.44 216C261.44 216 236.432 222.4 233.2 240.544C232.157 245.719 232.224 251.055 233.396 256.202C234.568 261.349 236.819 266.188 240 270.4C240 270.4 234.08 277.84 238.208 292.976C240.8 302.624 249.376 310.4 255.152 310.4Z" fill="#263238"/>
<path d="M327.648 228.064C328.233 231.364 328.469 234.716 328.352 238.064C328.329 241.369 327.9 244.657 327.072 247.856C325.495 254.187 321.586 259.69 316.128 263.264C310.832 267.12 304.048 268.064 297.584 269.088C294.272 269.184 290.944 269.52 287.6 269.424C284.256 269.328 280.912 269.072 277.52 269.008C280.832 269.6 284.176 270.064 287.536 270.608C290.896 271.152 294.304 270.816 297.728 270.928C304.448 270.256 311.52 269.328 317.424 265.248C323.302 261.305 327.402 255.217 328.848 248.288C330.158 241.554 329.745 234.597 327.648 228.064Z" fill="#263238"/>
<path d="M261.44 216C254.956 216.434 248.631 218.205 242.864 221.2C236.845 224.167 232.068 229.165 229.376 235.312C228.247 238.441 227.625 241.731 227.536 245.056C227.326 248.356 227.683 251.668 228.592 254.848C230.302 261.283 234.375 266.837 240 270.4C235.152 266.307 231.78 260.737 230.4 254.544C229.049 248.478 229.471 242.152 231.616 236.32C232.723 233.483 234.351 230.878 236.416 228.64C238.608 226.436 241.064 224.512 243.728 222.912C249.228 219.684 255.207 217.351 261.44 216Z" fill="#263238"/>
<path d="M318.064 200.704C322.775 198.664 327.782 197.389 332.896 196.928C337.88 196.443 342.905 197.248 347.488 199.264C351.97 201.469 355.823 204.771 358.688 208.864C361.645 213.063 363.974 217.672 365.6 222.544C364.832 217.327 362.991 212.325 360.192 207.856C357.482 203.14 353.379 199.378 348.446 197.086C343.513 194.794 337.992 194.085 332.64 195.056C327.43 195.862 322.457 197.789 318.064 200.704Z" fill="#263238"/>
<path d="M355.376 250.192C349.668 248.622 344.261 246.113 339.376 242.768C336.989 241.1 334.837 239.12 332.976 236.88C331.096 234.569 329.486 232.051 328.176 229.376C328.621 232.43 329.712 235.353 331.376 237.952C333.045 240.597 335.22 242.886 337.776 244.688C340.311 246.486 343.113 247.874 346.08 248.8C349.075 249.797 352.22 250.268 355.376 250.192Z" fill="#263238"/>
<path d="M314.816 318.848C310.586 319.146 306.356 318.25 302.61 316.263C298.863 314.276 295.75 311.277 293.623 307.608C291.497 303.939 290.443 299.746 290.581 295.507C290.72 291.269 292.045 287.154 294.407 283.631C296.769 280.109 300.072 277.32 303.94 275.582C307.808 273.844 312.087 273.226 316.289 273.8C320.491 274.373 324.448 276.115 327.709 278.826C330.97 281.537 333.405 285.109 334.736 289.136C336.609 294.842 336.146 301.057 333.447 306.422C330.748 311.786 326.034 315.863 320.336 317.76C318.547 318.345 316.693 318.71 314.816 318.848ZM311.856 276.672C310.224 276.79 308.612 277.107 307.056 277.616C302.318 279.182 298.354 282.495 295.973 286.881C293.592 291.266 292.972 296.394 294.239 301.221C295.506 306.048 298.565 310.211 302.793 312.861C307.021 315.512 312.101 316.451 316.997 315.488C321.894 314.525 326.239 311.732 329.149 307.678C332.058 303.623 333.313 298.613 332.658 293.665C332.003 288.718 329.487 284.207 325.622 281.05C321.757 277.892 316.834 276.327 311.856 276.672Z" fill="#8A5A8E"/>
<path d="M363.872 309.056C355.216 309.664 346.768 301.36 344.56 289.744C343.425 284.211 344.04 278.463 346.32 273.296C347.168 271.018 348.591 268.998 350.449 267.432C352.308 265.866 354.539 264.806 356.928 264.355C359.316 263.904 361.78 264.078 364.082 264.86C366.383 265.641 368.444 267.004 370.064 268.816C374.073 272.786 376.742 277.911 377.696 283.472C380.016 295.744 374.496 307.136 365.344 308.864C364.858 308.959 364.366 309.023 363.872 309.056ZM358.624 267.2C358.24 267.2 357.872 267.2 357.488 267.344C355.604 267.792 353.855 268.686 352.388 269.95C350.921 271.214 349.778 272.811 349.056 274.608C347.039 279.194 346.507 284.296 347.536 289.2C349.552 299.824 357.264 307.328 364.784 305.904C372.304 304.48 376.736 294.704 374.72 284.064C373.891 279.12 371.536 274.56 367.984 271.024C366.778 269.768 365.321 268.779 363.709 268.12C362.097 267.462 360.365 267.148 358.624 267.2Z" fill="#8A5A8E"/>
<path d="M334.688 291.808L332.704 290.208C335.104 287.28 341.072 282.832 346.592 286.864L344.992 288.912C340.144 285.28 334.912 291.552 334.688 291.808Z" fill="#8A5A8E"/>
<path d="M245.056 313.792L242.608 313.056C242.96 311.92 246.096 301.856 251.52 299.888C256.608 298.064 290.816 294.864 292.272 294.72L292.512 297.264C282.704 298.176 256.32 300.864 252.4 302.288C248.816 303.6 245.888 311.04 245.056 313.792Z" fill="#8A5A8E"/>
<path d="M274.768 307.648C274.768 307.648 257.712 289.792 249.408 296.16C241.104 302.528 256.048 329.936 267.312 332.272C268.733 332.672 270.22 332.781 271.684 332.593C273.148 332.404 274.559 331.922 275.832 331.175C277.105 330.428 278.214 329.431 279.092 328.245C279.971 327.059 280.601 325.707 280.944 324.272L274.768 307.648Z" fill="#D3766A"/>
<path d="M253.888 303.904C253.856 303.914 253.828 303.935 253.808 303.962C253.789 303.989 253.778 304.022 253.778 304.056C253.778 304.089 253.789 304.122 253.808 304.15C253.828 304.177 253.856 304.197 253.888 304.208C261.888 306.08 266.816 312.416 270.672 319.184C268.032 316.752 264.768 315.696 261.472 318.912C261.296 319.088 261.472 319.36 261.744 319.28C262.994 318.663 264.404 318.447 265.782 318.662C267.159 318.876 268.437 319.511 269.44 320.48C271.1 322.12 272.581 323.933 273.856 325.888C274.304 326.496 275.456 325.888 275.088 325.232L274.992 325.056C273.712 315.504 264.272 303.296 253.888 303.904Z" fill="#263238"/>
<path d="M256.992 366.4C254.368 363.2 271.248 353.6 275.632 357.216C280.016 360.832 302.208 417.12 295.008 478.192C287.808 539.264 169.6 605.072 165.2 595.936C163.376 592.096 165.712 581.392 168.592 577.968C172.64 573.168 258 520.176 266.432 482.304C273.92 448.624 263.648 374.72 256.992 366.4Z" fill="#455A64"/>
<path d="M323.536 365.12C319.984 358.384 338.272 363.808 340.272 367.44C342.272 371.072 366.72 429.424 370.944 467.568C372.544 482.848 378.544 523.984 378.544 523.984C378.544 523.984 360.688 468.8 345.968 422.592C339.711 402.98 332.219 383.784 323.536 365.12Z" fill="#455A64"/>
<path d="M669.616 606.016C669.616 606.016 688.336 538.48 703.216 515.552C718.096 492.624 746.032 467.424 746.032 467.424C746.032 467.424 745.44 571.536 669.616 606.016Z" fill="#8A5A8E"/>
<path d="M670.96 604.799C677.259 594.249 682.949 583.345 688 572.143C690.148 560.075 693.256 548.197 697.296 536.624C697.376 536.416 697.68 536.527 697.632 536.751C695.152 547.407 692.256 557.984 689.632 568.624C697.184 552.192 704.368 535.552 713.36 520.016C715.436 512.507 718.351 505.256 722.048 498.399C722.144 498.207 722.464 498.304 722.368 498.512C720.091 503.795 718.14 509.213 716.528 514.735C720.769 507.802 725.523 501.197 730.752 494.975C731.088 494.591 731.744 494.975 731.408 495.439C719.376 510.879 711.072 528.431 703.168 546.207C711.674 536.931 719.523 527.072 726.656 516.703C726.656 516.607 726.88 516.704 726.816 516.816C719.383 528.441 710.969 539.409 701.664 549.599C695.904 562.623 690.24 575.695 683.376 588.095C697.104 576.431 707.664 561.343 718.112 546.783C718.135 546.75 718.165 546.721 718.199 546.699C718.233 546.677 718.271 546.661 718.312 546.654C718.352 546.647 718.393 546.647 718.433 546.656C718.473 546.664 718.511 546.68 718.544 546.703C718.578 546.727 718.607 546.756 718.629 546.79C718.651 546.825 718.666 546.863 718.674 546.903C718.681 546.943 718.681 546.984 718.672 547.024C718.664 547.064 718.647 547.102 718.624 547.135C708.16 563.135 697.344 578.159 682.304 589.983C679.257 595.429 675.902 600.696 672.256 605.759C672.129 605.931 671.939 606.046 671.727 606.077C671.515 606.109 671.3 606.055 671.128 605.927C670.956 605.8 670.842 605.61 670.811 605.398C670.779 605.187 670.833 604.971 670.96 604.799Z" fill="#263238"/>
<path d="M663.808 612.096C663.808 612.096 697.408 549.824 687.68 489.456C677.952 429.088 667.44 407.584 667.44 407.584C667.44 407.584 614.56 501.488 663.808 612.096Z" fill="#8A5A8E"/>
<path d="M650 514.208C652.849 531.314 657.196 548.136 662.992 564.48C663.088 542.32 663.504 520.176 664.096 498.016C660.296 484.572 658.147 470.716 657.696 456.752C657.696 456.352 658.288 456.368 658.32 456.752C659.385 468.719 661.359 480.588 664.224 492.256C664.736 473.984 665.323 455.712 665.984 437.44C665.984 437.377 666.009 437.316 666.054 437.271C666.099 437.225 666.16 437.2 666.224 437.2C666.288 437.2 666.349 437.225 666.394 437.271C666.439 437.316 666.464 437.377 666.464 437.44C666.464 465.984 666.464 494.528 666.272 523.088C670.376 512.049 673.618 500.709 675.968 489.168C675.976 489.147 675.991 489.13 676.009 489.117C676.028 489.104 676.05 489.098 676.072 489.098C676.094 489.098 676.116 489.104 676.135 489.117C676.153 489.13 676.168 489.147 676.176 489.168C675.152 502.496 671.12 515.392 666.24 527.76C666.112 546.016 665.92 564.256 665.504 582.512C671.2 563.104 677.28 544.32 678.928 523.808C678.928 523.781 678.933 523.754 678.944 523.729C678.954 523.703 678.97 523.68 678.989 523.661C679.008 523.642 679.031 523.626 679.056 523.616C679.082 523.606 679.109 523.6 679.136 523.6C679.163 523.6 679.19 523.606 679.216 523.616C679.241 523.626 679.264 523.642 679.283 523.661C679.302 523.68 679.318 523.703 679.328 523.729C679.339 523.754 679.344 523.781 679.344 523.808C678.912 546.416 673.104 569.36 665.696 590.624C665.614 590.834 665.482 591.021 665.312 591.168C665.152 597.824 664.96 604.491 664.736 611.168C664.736 611.363 664.658 611.551 664.52 611.689C664.382 611.827 664.195 611.904 664 611.904C663.805 611.904 663.618 611.827 663.48 611.689C663.342 611.551 663.264 611.363 663.264 611.168C662.987 597.526 662.875 583.883 662.928 570.24C655.376 552.64 651.344 533.136 649.664 514.24C649.696 514.064 649.984 514.032 650 514.208Z" fill="#263238"/>
<path d="M652.304 504.576C653.487 509.994 654.273 515.491 654.656 521.024C654.656 521.216 654.384 521.232 654.336 521.024C653.028 515.629 652.103 510.149 651.568 504.624C651.52 504.24 652.224 504.16 652.304 504.576Z" fill="#263238"/>
<path d="M672 459.056C672 458.864 672.32 458.928 672.32 459.056C672.278 462.897 671.707 466.714 670.624 470.4C670.544 470.704 670.112 470.56 670.176 470.272C670.896 466.576 671.344 462.816 672 459.056Z" fill="#263238"/>
<path d="M651.552 616.864C651.552 616.864 652.912 551.856 634.368 519.552C615.824 487.248 585.056 470.784 585.056 470.784C585.056 470.784 597.456 585.36 651.552 616.864Z" fill="#8A5A8E"/>
<path d="M617.744 561.28C625.536 572.56 633.296 583.44 642.848 593.28C639.136 579.99 634.87 566.923 630.048 554.08C619.648 544.912 609.344 535.408 602.96 522.864C602.864 522.672 603.152 522.496 603.264 522.688C610.128 533.792 619.264 542.688 628.944 551.232C621.508 531.879 612.889 513 603.136 494.704C603.103 494.613 603.103 494.513 603.136 494.422C603.168 494.331 603.232 494.254 603.316 494.204C603.399 494.155 603.497 494.136 603.593 494.152C603.689 494.167 603.776 494.215 603.84 494.288C609.771 503.881 615.176 513.789 620.032 523.968C618.288 517.008 616.832 509.904 615.12 503.008C615.11 502.97 615.115 502.929 615.134 502.895C615.154 502.86 615.186 502.835 615.224 502.824C615.262 502.814 615.303 502.819 615.338 502.838C615.372 502.858 615.398 502.89 615.408 502.928C618.704 511.616 621.968 521.216 623.024 530.496C629.52 544.916 634.979 559.78 639.36 574.976C638.88 565.232 638.272 555.536 637.28 545.808C637.28 545.632 637.568 545.584 637.6 545.808C639.659 556.595 640.597 567.565 640.4 578.544C643.072 588.224 645.328 598.032 647.136 607.904C647.136 608.176 646.8 608.288 646.736 608.016C645.728 603.872 644.624 599.776 643.536 595.68C643.536 595.68 643.392 595.68 643.328 595.68C633.376 585.648 623.936 574.24 617.728 561.456C617.6 561.264 617.696 561.216 617.744 561.28Z" fill="#263238"/>
<path d="M596.256 508.384C598.32 510.624 600.208 512.992 602.208 515.296C604.147 517.247 605.934 519.344 607.552 521.568C607.552 521.664 607.552 521.776 607.408 521.712C605.073 519.975 602.994 517.917 601.232 515.6C599.28 513.421 597.514 511.083 595.952 508.608C595.84 508.432 596.112 508.224 596.256 508.384Z" fill="#263238"/>
<path d="M706.656 608.928L704.32 629.728L697.264 692.8H635.824L628.8 629.76L626.448 608.96H706.672L706.656 608.928Z" fill="#455A64"/>
<path d="M706.656 608.928L704.32 629.728H628.8L626.448 608.928H706.672H706.656Z" fill="#37474F"/>
<path d="M620.976 617.408H712.112V593.808H620.976V617.408Z" fill="#455A64"/>
<path d="M623.44 671.056H439.6V692.816H623.44V671.056Z" fill="#37474F"/>
<path d="M483.152 671.056H475.664V692.816H483.152V671.056Z" fill="#455A64"/>
<path d="M601.808 671.056H583.84V692.816H601.808V671.056Z" fill="#455A64"/>
<path d="M610.208 607.44H422.432V636.192H610.208V607.44Z" fill="#37474F"/>
<path d="M576.992 616.768H531.888V626.864H576.992V616.768Z" fill="#8A5A8E"/>
<path d="M599.6 621.808C599.677 623.003 599.393 624.193 598.785 625.224C598.177 626.255 597.273 627.079 596.191 627.59C595.108 628.101 593.897 628.274 592.715 628.088C591.533 627.901 590.434 627.364 589.561 626.545C588.688 625.726 588.082 624.664 587.82 623.496C587.559 622.328 587.655 621.108 588.096 619.995C588.536 618.882 589.301 617.928 590.291 617.255C591.282 616.583 592.451 616.224 593.648 616.224C595.177 616.177 596.663 616.738 597.779 617.785C598.895 618.832 599.55 620.279 599.6 621.808Z" fill="#8A5A8E"/>
<path d="M508.24 582H413.376V607.376H508.24V582Z" fill="#263238"/>
<path d="M595.92 582H508.24V607.376H595.92V582Z" fill="#263238"/>
<path d="M508.24 584.64H413.376V604.752H508.24V584.64Z" fill="white"/>
<path d="M421.632 588.8C431.573 588.672 441.515 588.576 451.456 588.512L464.944 588.416L494.752 588.512C504.688 588.512 498.304 588.656 508.24 588.8C498.304 588.944 504.688 589.04 494.752 589.104L464.944 589.184L451.456 589.104C441.515 589.019 431.573 588.917 421.632 588.8Z" fill="#DBDBDB"/>
<path d="M421.632 592.72C431.573 592.581 441.515 592.485 451.456 592.432L464.944 592.336L494.752 592.416C504.688 592.416 498.304 592.576 508.24 592.72C498.304 592.864 504.688 592.96 494.752 593.008L464.944 593.104L451.456 593.008C441.515 592.965 431.573 592.869 421.632 592.72Z" fill="#DBDBDB"/>
<path d="M421.632 596.656C431.573 596.528 441.515 596.432 451.456 596.368L464.944 596.288L494.752 596.368C504.688 596.368 498.304 596.528 508.24 596.656C498.304 596.8 504.688 596.912 494.752 596.96H464.944H451.456C441.515 596.907 431.573 596.805 421.632 596.656Z" fill="#DBDBDB"/>
<path d="M421.632 600.608C431.573 600.469 441.515 600.373 451.456 600.32L464.944 600.224L494.752 600.32C504.688 600.32 498.304 600.464 508.24 600.608C498.304 600.752 504.688 600.848 494.752 600.896L464.944 600.992L451.456 600.896C441.515 600.853 431.573 600.757 421.632 600.608Z" fill="#DBDBDB"/>
<path d="M540.016 582H527.664V607.376H540.016V582Z" fill="#455A64"/>
<path d="M591.392 582H583.088V607.376H591.392V582Z" fill="#455A64"/>
<path d="M495.648 671.04H602.48V636.16H495.648V671.04Z" fill="#8A5A8E"/>
<path d="M414.528 671.04H495.648V636.16H414.528V671.04Z" fill="#8A5A8E"/>
<path d="M495.648 667.424H602.48V639.792H495.648V667.424Z" fill="white"/>
<path d="M595.552 661.744C587.232 661.894 578.907 661.99 570.576 662.032L545.6 662.128L520.624 662.032C512.293 662.032 503.963 661.936 495.632 661.744C503.973 661.606 512.304 661.51 520.624 661.456L545.6 661.36L570.576 661.456C578.907 661.51 587.232 661.606 595.552 661.744Z" fill="#DBDBDB"/>
<path d="M595.552 656.32C587.232 656.469 578.907 656.565 570.576 656.608L545.6 656.704L520.624 656.624C512.293 656.56 503.963 656.459 495.632 656.32C503.973 656.181 512.304 656.085 520.624 656.032L545.6 656L570.576 656.096C578.907 656.107 587.232 656.181 595.552 656.32Z" fill="#DBDBDB"/>
<path d="M595.552 650.896C587.232 651.034 578.907 651.136 570.576 651.2L545.6 651.28L520.624 651.2C512.293 651.136 503.963 651.034 495.632 650.896C503.973 650.757 512.304 650.661 520.624 650.608L545.6 650.512L570.576 650.608C578.907 650.661 587.232 650.757 595.552 650.896Z" fill="#DBDBDB"/>
<path d="M595.552 645.472C587.232 645.611 578.907 645.712 570.576 645.776L545.6 645.856L520.624 645.776C512.293 645.776 503.963 645.675 495.632 645.472C503.973 645.323 512.304 645.227 520.624 645.184L545.6 645.088L570.576 645.184C578.912 645.232 587.2 645.344 595.552 645.472Z" fill="#DBDBDB"/>
<path d="M442.624 636.176H427.44V671.056H442.624V636.176Z" fill="#455A64"/>
<path d="M503.872 165.856C503.869 176.443 500.926 186.821 495.37 195.832C489.815 204.844 481.865 212.136 472.408 216.895C462.951 221.653 452.358 223.691 441.81 222.782C431.263 221.872 421.175 218.051 412.672 211.744L384.672 218.896L396.336 192.816C392.233 185.153 389.932 176.655 389.608 167.968C389.283 159.282 390.944 150.636 394.463 142.688C397.983 134.74 403.268 127.699 409.918 122.101C416.567 116.503 424.406 112.494 432.838 110.381C441.269 108.268 450.072 108.105 458.576 109.905C467.08 111.706 475.061 115.421 481.913 120.77C488.765 126.119 494.307 132.96 498.118 140.772C501.928 148.585 503.907 157.163 503.904 165.856H503.872Z" fill="white"/>
<path d="M503.872 165.856C503.857 176.445 500.922 186.826 495.392 195.856C494.003 198.076 492.486 200.213 490.848 202.256C489.144 204.266 487.316 206.169 485.376 207.952C484.429 208.866 483.436 209.731 482.4 210.544L479.2 212.928C478.144 213.712 476.976 214.336 475.856 215.056L474.176 216.096C473.6 216.416 472.992 216.688 472.416 216.976C471.216 217.552 470.048 218.16 468.848 218.704L465.136 220.096C463.901 220.569 462.633 220.954 461.344 221.248C460.064 221.552 458.816 221.984 457.504 222.176C454.907 222.688 452.276 223.008 449.632 223.136C446.969 223.347 444.294 223.347 441.632 223.136C436.343 222.703 431.138 221.551 426.16 219.712C421.185 217.836 416.486 215.295 412.192 212.16L412.672 212.256L384.704 219.52L383.296 219.888L383.888 218.56L395.488 192.448V193.136C391.338 185.39 389.049 176.784 388.8 168C388.481 159.199 390.18 150.441 393.769 142.398C397.358 134.355 402.74 127.241 409.504 121.6C416.241 115.997 424.171 112.012 432.688 109.952C441.148 107.901 449.963 107.795 458.471 109.641C466.978 111.487 474.956 115.237 481.806 120.61C488.655 125.983 494.198 132.838 498.017 140.661C501.836 148.484 503.832 157.071 503.856 165.776L503.872 165.856ZM503.872 165.856C503.826 157.18 501.813 148.627 497.983 140.842C494.152 133.057 488.606 126.242 481.76 120.912C474.897 115.646 466.943 111.984 458.48 110.192C450.004 108.485 441.252 108.72 432.88 110.88C424.544 113.007 416.805 117.014 410.256 122.592C403.764 128.206 398.581 135.175 395.072 143.008C391.62 150.853 389.995 159.379 390.319 167.943C390.643 176.508 392.908 184.887 396.944 192.448L397.12 192.784L396.976 193.136L385.28 219.2L384.464 218.224L412.512 211.2H412.768L412.992 211.36C421.361 217.703 431.336 221.582 441.792 222.56C444.398 222.805 447.02 222.843 449.632 222.672C452.245 222.565 454.849 222.282 457.424 221.824C458.72 221.648 459.968 221.216 461.248 220.928C462.532 220.661 463.794 220.297 465.024 219.84L468.72 218.512L472.272 216.832C472.864 216.544 473.472 216.288 474.048 215.968L475.648 214.96C476.752 214.272 477.936 213.664 478.992 212.896L482.192 210.544C483.229 209.738 484.222 208.878 485.168 207.968C487.104 206.197 488.931 204.311 490.64 202.32C492.288 200.281 493.811 198.144 495.2 195.92C500.809 186.891 503.811 176.485 503.872 165.856Z" fill="#263238"/>
<path d="M437.44 199.872L411.824 173.936L420.432 165.424L435.392 180.576L466.496 131.84L476.688 138.336L437.44 199.872Z" fill="#8A5A8E"/>
</svg>
