<svg width="800" height="823" viewBox="0 0 800 823" fill="none" xmlns="http://www.w3.org/2000/svg">
<path d="M111.664 342.907C78.7039 530.969 299.2 410.817 370.352 425.677C421.408 436.33 472.464 534.931 541.888 537.627C614.832 540.471 670.48 468.205 679.36 403.156C692.8 304.851 559.072 109.474 441.696 128.494C352.672 142.911 366.224 272.401 282.992 299.459C230.656 316.326 129.6 240.427 111.664 342.907Z" fill="#FFF4D4"/>
<path opacity="0.9" d="M111.664 342.907C78.7039 530.969 299.2 410.817 370.352 425.677C421.408 436.33 472.464 534.931 541.888 537.627C614.832 540.471 670.48 468.205 679.36 403.156C692.8 304.851 559.072 109.474 441.696 128.494C352.672 142.911 366.224 272.401 282.992 299.459C230.656 316.326 129.6 240.427 111.664 342.907Z" fill="#FFF4D4"/>
<path d="M400 703.841C571.332 703.841 710.224 695.509 710.224 685.232C710.224 674.954 571.332 666.623 400 666.623C228.668 666.623 89.776 674.954 89.776 685.232C89.776 695.509 228.668 703.841 400 703.841Z" fill="#FFF4D4"/>
<path d="M103.741 448.251L102.12 448.445L105.001 473.753L106.622 473.558L103.741 448.251Z" fill="#8A5A8E"/>
<path d="M107.696 482.971L106.075 483.166L107.528 495.934L109.149 495.739L107.696 482.971Z" fill="#8A5A8E"/>
<path d="M215.344 396.646L213.424 391.106C212.103 387.298 209.564 384.064 206.221 381.932C202.879 379.8 198.931 378.896 195.024 379.369L118.56 388.558C113.979 389.11 109.8 391.509 106.94 395.227C104.081 398.944 102.776 403.677 103.312 408.383L125.072 599.568C125.253 601.167 125.738 602.714 126.501 604.12C127.264 605.526 128.29 606.764 129.519 607.762C130.747 608.761 132.156 609.501 133.663 609.939C135.171 610.378 136.748 610.507 138.304 610.319L411.904 577.441C413.463 577.26 414.972 576.764 416.344 575.981C417.716 575.199 418.925 574.146 419.9 572.883C420.875 571.62 421.598 570.172 422.027 568.621C422.456 567.07 422.583 565.448 422.4 563.846L403.52 398.569C403.155 395.343 401.557 392.398 399.079 390.382C396.601 388.365 393.444 387.443 390.304 387.818L231.424 406.92C228.008 407.327 224.559 406.532 221.639 404.666C218.719 402.8 216.5 399.973 215.344 396.646Z" fill="#8A5A8E"/>
<path d="M222.979 313.506L136.535 331.205L160.268 453.571L246.712 435.872L222.979 313.506Z" fill="#8A5A8E"/>
<path opacity="0.7" d="M222.979 313.506L136.535 331.205L160.268 453.571L246.712 435.872L222.979 313.506Z" fill="#FFE7EB"/>
<g opacity="0.4">
<path d="M211.44 342.907L158.192 353.822C156.952 354.07 155.666 353.805 154.615 353.084C153.563 352.364 152.831 351.247 152.576 349.976C152.335 348.701 152.593 347.381 153.294 346.3C153.995 345.22 155.082 344.467 156.32 344.206L209.6 333.339C210.84 333.092 212.126 333.357 213.177 334.077C214.229 334.797 214.961 335.915 215.216 337.186C215.442 338.458 215.173 339.77 214.467 340.84C213.76 341.91 212.674 342.652 211.44 342.907Z" fill="#8A5A8E"/>
<path d="M215.36 363.176L162.112 374.14C160.874 374.383 159.593 374.116 158.545 373.396C157.497 372.676 156.767 371.562 156.512 370.294C156.276 369.022 156.536 367.705 157.237 366.629C157.937 365.552 159.022 364.802 160.256 364.54L213.504 353.641C214.742 353.398 216.023 353.666 217.071 354.386C218.119 355.105 218.849 356.22 219.104 357.488C219.322 358.75 219.053 360.049 218.354 361.111C217.655 362.173 216.581 362.913 215.36 363.176Z" fill="#8A5A8E"/>
<path d="M219.28 383.412L166.032 394.311C164.794 394.554 163.513 394.286 162.465 393.567C161.417 392.847 160.687 391.733 160.432 390.464C160.196 389.192 160.456 387.876 161.157 386.8C161.857 385.723 162.942 384.973 164.176 384.711L217.424 373.795C218.662 373.553 219.943 373.82 220.991 374.54C222.039 375.26 222.769 376.374 223.024 377.642C223.265 378.917 223.007 380.237 222.306 381.317C221.605 382.398 220.518 383.15 219.28 383.412Z" fill="#8A5A8E"/>
<path d="M223.216 403.731L169.968 414.63C168.728 414.877 167.442 414.612 166.391 413.892C165.339 413.172 164.607 412.054 164.352 410.783C164.111 409.508 164.369 408.188 165.07 407.108C165.771 406.027 166.858 405.275 168.096 405.013L221.344 394.114C222.584 393.866 223.87 394.132 224.921 394.852C225.973 395.572 226.705 396.689 226.96 397.961C227.201 399.235 226.943 400.556 226.242 401.636C225.541 402.716 224.454 403.469 223.216 403.731Z" fill="#8A5A8E"/>
<path d="M212.576 426.86L173.888 434.784C172.65 435.027 171.369 434.759 170.321 434.039C169.273 433.32 168.543 432.205 168.288 430.937C168.047 429.663 168.305 428.342 169.006 427.262C169.707 426.182 170.794 425.429 172.032 425.167L210.72 417.244C211.958 417.001 213.239 417.268 214.287 417.988C215.335 418.708 216.065 419.822 216.32 421.09C216.561 422.365 216.303 423.685 215.602 424.766C214.901 425.846 213.814 426.599 212.576 426.86Z" fill="#8A5A8E"/>
</g>
<path d="M346.151 289.925L258.821 302.2L275.281 425.82L362.612 413.545L346.151 289.925Z" fill="#8A5A8E"/>
<path opacity="0.7" d="M346.151 289.925L258.821 302.2L275.281 425.82L362.612 413.545L346.151 289.925Z" fill="#FFE7EB"/>
<g opacity="0.4">
<path d="M332.896 318.578L279.104 326.14C277.851 326.308 276.584 325.963 275.578 325.178C274.571 324.393 273.907 323.233 273.728 321.948C273.564 320.661 273.9 319.359 274.664 318.325C275.427 317.291 276.557 316.608 277.808 316.424L331.6 308.862C332.853 308.693 334.12 309.039 335.126 309.824C336.132 310.608 336.797 311.769 336.976 313.054C337.14 314.341 336.804 315.643 336.04 316.677C335.276 317.711 334.147 318.394 332.896 318.578Z" fill="#8A5A8E"/>
<path d="M335.616 339.012L281.824 346.574C280.571 346.742 279.304 346.397 278.298 345.612C277.291 344.828 276.627 343.667 276.448 342.382C276.288 341.097 276.626 339.8 277.39 338.769C278.153 337.739 279.28 337.058 280.528 336.875L334.32 329.313C335.57 329.144 336.835 329.487 337.841 330.268C338.847 331.049 339.513 332.206 339.696 333.488C339.86 334.775 339.524 336.077 338.76 337.111C337.996 338.145 336.867 338.828 335.616 339.012Z" fill="#8A5A8E"/>
<path d="M299.36 364.936L284.544 367.024C283.291 367.192 282.024 366.847 281.018 366.062C280.011 365.278 279.347 364.117 279.168 362.832C279.004 361.545 279.34 360.243 280.104 359.209C280.867 358.175 281.997 357.492 283.248 357.308L298.08 355.22C299.33 355.056 300.593 355.404 301.596 356.188C302.599 356.973 303.261 358.131 303.44 359.412C303.604 360.699 303.268 362.001 302.504 363.035C301.741 364.069 300.611 364.752 299.36 364.936Z" fill="#8A5A8E"/>
<path d="M328.112 360.892L313.28 362.979C312.03 363.144 310.767 362.796 309.764 362.012C308.761 361.227 308.099 360.069 307.92 358.787C307.756 357.5 308.092 356.199 308.856 355.165C309.619 354.131 310.749 353.448 312 353.264L326.816 351.193C328.066 351.023 329.331 351.367 330.337 352.148C331.343 352.929 332.009 354.086 332.192 355.368C332.356 356.655 332.02 357.957 331.256 358.991C330.492 360.025 329.363 360.708 328.112 360.892Z" fill="#8A5A8E"/>
<path d="M341.056 379.895L287.264 387.457C286.011 387.626 284.744 387.28 283.738 386.496C282.731 385.711 282.067 384.55 281.888 383.265C281.728 381.981 282.066 380.683 282.83 379.653C283.593 378.622 284.72 377.942 285.968 377.758L339.76 370.18C341.013 370.011 342.28 370.356 343.286 371.141C344.292 371.926 344.957 373.087 345.136 374.372C345.3 375.659 344.964 376.96 344.2 377.994C343.436 379.028 342.307 379.711 341.056 379.895Z" fill="#8A5A8E"/>
<path d="M329.088 402.4L289.984 407.891C288.736 408.055 287.475 407.71 286.473 406.929C285.47 406.148 284.807 404.994 284.624 403.715C284.459 402.431 284.793 401.131 285.554 400.098C286.314 399.064 287.44 398.379 288.688 398.192L327.792 392.701C329.04 392.537 330.3 392.882 331.303 393.663C332.305 394.444 332.969 395.598 333.152 396.877C333.316 398.161 332.982 399.461 332.222 400.494C331.461 401.528 330.336 402.213 329.088 402.4Z" fill="#8A5A8E"/>
</g>
<path d="M263.745 307.962L175.934 315.823L186.476 440.124L274.287 432.262L263.745 307.962Z" fill="#8A5A8E"/>
<path opacity="0.8" d="M263.745 307.962L175.934 315.823L186.476 440.124L274.287 432.262L263.745 307.962Z" fill="#FFE7EB"/>
<g opacity="0.4">
<path d="M249.136 335.937L195.04 340.77C193.781 340.876 192.533 340.467 191.566 339.633C190.598 338.799 189.99 337.607 189.872 336.315C189.774 335.025 190.174 333.747 190.985 332.757C191.796 331.766 192.954 331.143 194.208 331.022L248.304 326.09C249.563 325.985 250.811 326.394 251.778 327.228C252.745 328.062 253.354 329.254 253.472 330.545C253.534 331.192 253.47 331.845 253.286 332.467C253.101 333.089 252.798 333.667 252.395 334.168C251.992 334.669 251.497 335.083 250.938 335.387C250.378 335.691 249.766 335.878 249.136 335.937Z" fill="#8A5A8E"/>
<path d="M250.88 356.486L196.784 361.418C195.525 361.523 194.277 361.114 193.31 360.28C192.342 359.446 191.734 358.254 191.616 356.963C191.514 355.67 191.911 354.387 192.723 353.393C193.535 352.399 194.695 351.774 195.952 351.653L250.048 346.721C251.307 346.616 252.555 347.025 253.522 347.859C254.49 348.693 255.098 349.885 255.216 351.176C255.318 352.469 254.921 353.752 254.109 354.746C253.297 355.74 252.137 356.365 250.88 356.486Z" fill="#8A5A8E"/>
<path d="M252.624 377.035L198.528 381.967C197.269 382.072 196.021 381.663 195.054 380.829C194.086 379.995 193.478 378.803 193.36 377.512C193.258 376.218 193.655 374.936 194.467 373.942C195.279 372.948 196.439 372.323 197.696 372.202L251.792 367.27C253.05 367.165 254.299 367.574 255.266 368.408C256.233 369.241 256.842 370.433 256.96 371.725C257.062 373.018 256.664 374.301 255.853 375.295C255.041 376.288 253.881 376.914 252.624 377.035Z" fill="#8A5A8E"/>
<path d="M254.4 397.584L200.304 402.515C199.045 402.62 197.797 402.212 196.83 401.378C195.862 400.544 195.254 399.352 195.136 398.06C195.034 396.767 195.431 395.485 196.243 394.491C197.055 393.497 198.215 392.872 199.472 392.751L253.568 387.918C254.826 387.812 256.075 388.221 257.042 389.055C258.009 389.889 258.618 391.081 258.736 392.373C258.812 393.649 258.402 394.907 257.593 395.879C256.784 396.851 255.639 397.462 254.4 397.584Z" fill="#8A5A8E"/>
<path d="M241.328 419.464L202.016 422.981C200.75 423.1 199.489 422.698 198.511 421.863C197.533 421.027 196.918 419.828 196.8 418.527C196.698 417.233 197.095 415.951 197.907 414.957C198.719 413.963 199.879 413.338 201.136 413.217L240.448 409.699C241.707 409.594 242.955 410.002 243.922 410.836C244.889 411.67 245.498 412.862 245.616 414.154C245.719 415.439 245.328 416.715 244.526 417.707C243.725 418.7 242.577 419.33 241.328 419.464Z" fill="#8A5A8E"/>
</g>
<path d="M370.745 301.922L282.703 306.283L288.551 430.91L376.592 426.549L370.745 301.922Z" fill="#8A5A8E"/>
<path opacity="0.8" d="M370.745 301.922L282.703 306.283L288.551 430.91L376.592 426.549L370.745 301.922Z" fill="#FFE7EB"/>
<g opacity="0.4">
<path d="M355.104 329.263L300.88 331.959C299.62 332.013 298.39 331.555 297.456 330.684C296.521 329.814 295.958 328.6 295.888 327.307C295.836 326.012 296.281 324.748 297.128 323.788C297.976 322.829 299.157 322.25 300.416 322.178L354.656 319.482C355.916 319.428 357.146 319.886 358.08 320.756C359.014 321.627 359.578 322.84 359.648 324.134C359.7 325.431 359.252 326.698 358.402 327.658C357.551 328.618 356.366 329.195 355.104 329.263Z" fill="#8A5A8E"/>
<path d="M356.08 349.877L301.84 352.557C300.58 352.61 299.35 352.153 298.416 351.282C297.481 350.411 296.918 349.198 296.848 347.904C296.796 346.607 297.243 345.341 298.094 344.381C298.945 343.42 300.13 342.844 301.392 342.775L355.616 340.079C356.879 340.026 358.111 340.486 359.046 341.36C359.98 342.234 360.542 343.451 360.608 344.748C360.66 346.043 360.215 347.307 359.367 348.266C358.52 349.226 357.339 349.805 356.08 349.877Z" fill="#8A5A8E"/>
<path d="M317.76 372.497L302.816 373.237C301.556 373.291 300.326 372.833 299.392 371.962C298.458 371.092 297.894 369.878 297.824 368.585C297.772 367.29 298.217 366.026 299.065 365.066C299.912 364.107 301.093 363.528 302.352 363.456L317.296 362.7C318.559 362.646 319.791 363.106 320.726 363.98C321.66 364.854 322.222 366.072 322.288 367.368C322.34 368.663 321.895 369.927 321.047 370.886C320.2 371.846 319.019 372.425 317.76 372.497Z" fill="#8A5A8E"/>
<path d="M346.736 370.985L331.792 371.724C330.532 371.778 329.302 371.32 328.368 370.45C327.434 369.579 326.87 368.366 326.8 367.072C326.748 365.778 327.193 364.514 328.041 363.554C328.888 362.594 330.069 362.016 331.328 361.943L346.272 361.203C347.532 361.15 348.762 361.607 349.696 362.478C350.631 363.349 351.194 364.562 351.264 365.856C351.316 367.15 350.871 368.414 350.024 369.374C349.176 370.334 347.995 370.912 346.736 370.985Z" fill="#8A5A8E"/>
<path d="M358.016 391.09L303.776 393.769C302.516 393.823 301.286 393.365 300.352 392.495C299.417 391.624 298.854 390.411 298.784 389.117C298.732 387.82 299.179 386.554 300.03 385.593C300.881 384.633 302.066 384.056 303.328 383.988L357.552 381.292C358.815 381.239 360.047 381.699 360.982 382.573C361.916 383.447 362.478 384.664 362.544 385.961C362.596 387.256 362.151 388.519 361.303 389.479C360.456 390.439 359.275 391.018 358.016 391.09Z" fill="#8A5A8E"/>
<path d="M344.16 412.428L304.752 414.384C303.492 414.438 302.262 413.98 301.328 413.11C300.394 412.239 299.83 411.026 299.76 409.732C299.708 408.437 300.153 407.174 301.001 406.214C301.848 405.254 303.029 404.675 304.288 404.603L343.696 402.647C344.956 402.593 346.186 403.051 347.12 403.921C348.054 404.792 348.618 406.005 348.688 407.299C348.74 408.594 348.295 409.858 347.447 410.817C346.6 411.777 345.419 412.356 344.16 412.428Z" fill="#8A5A8E"/>
</g>
<path d="M239.76 400.181L238.352 394.772C237.366 391.029 235.075 387.789 231.916 385.668C228.757 383.546 224.949 382.691 221.216 383.265L144.752 392.455C140.113 393.039 135.841 395.341 132.736 398.931C129.632 402.52 127.908 407.149 127.888 411.951L132.224 599.108C132.25 600.65 132.597 602.168 133.241 603.56C133.885 604.953 134.813 606.187 135.96 607.181C137.107 608.174 138.449 608.904 139.893 609.321C141.338 609.737 142.853 609.831 144.336 609.596L417.936 576.719C421.113 576.323 424.04 574.75 426.169 572.296C428.299 569.842 429.484 566.674 429.504 563.387L425.76 401.595C425.732 400.052 425.383 398.534 424.737 397.142C424.091 395.749 423.162 394.515 422.013 393.522C420.865 392.528 419.523 391.799 418.077 391.382C416.631 390.966 415.116 390.872 413.632 391.107L254.768 410.192C251.507 410.704 248.176 409.967 245.41 408.121C242.643 406.275 240.632 403.45 239.76 400.181Z" fill="#8A5A8E"/>
<path opacity="0.3" d="M239.76 400.181L238.352 394.772C237.366 391.029 235.075 387.789 231.916 385.668C228.757 383.546 224.949 382.691 221.216 383.265L144.752 392.455C140.113 393.039 135.841 395.341 132.736 398.931C129.632 402.52 127.908 407.149 127.888 411.951L132.224 599.108C132.25 600.65 132.597 602.168 133.241 603.56C133.885 604.953 134.813 606.187 135.96 607.181C137.107 608.174 138.449 608.904 139.893 609.321C141.338 609.737 142.853 609.831 144.336 609.596L417.936 576.719C421.113 576.323 424.04 574.75 426.169 572.296C428.299 569.842 429.484 566.674 429.504 563.387L425.76 401.595C425.732 400.052 425.383 398.534 424.737 397.142C424.091 395.749 423.162 394.515 422.013 393.522C420.865 392.528 419.523 391.799 418.077 391.382C416.631 390.966 415.116 390.872 413.632 391.107L254.768 410.192C251.507 410.704 248.176 409.967 245.41 408.121C242.643 406.275 240.632 403.45 239.76 400.181Z" fill="black"/>
<path d="M507.2 310.21C506.016 316.309 504.752 322.325 503.328 328.293C501.904 334.26 500.512 340.293 498.96 346.26L496.592 355.187L496.288 356.337C496.144 356.831 495.984 357.324 495.792 357.833C495.383 358.952 494.846 360.017 494.192 361.006C493.399 362.235 492.383 363.295 491.2 364.13C489.897 365.037 488.397 365.602 486.832 365.773C484.463 365.95 482.093 365.432 480 364.277C478.41 363.388 476.919 362.324 475.552 361.105C473.079 358.883 470.891 356.348 469.04 353.559L473.6 349.482C475.777 351.222 478.077 352.794 480.48 354.184C481.524 354.792 482.629 355.283 483.776 355.647C484.752 355.976 485.616 355.927 485.616 355.762C485.616 355.598 485.456 355.762 485.376 355.762C485.296 355.762 485.376 355.762 485.376 355.483C485.376 355.203 485.568 354.907 485.68 354.48L486.048 352.655L487.904 343.679L491.664 325.728C492.88 319.744 494.192 313.744 495.456 307.826L507.2 310.21Z" fill="#FFC3BD"/>
<path d="M501.888 291.42C488.24 302.155 488.8 322.391 488.8 322.391L513.2 328.391C513.2 328.391 520.704 308.04 517.664 300.593C514.496 292.834 509.584 285.371 501.888 291.42Z" fill="#263238"/>
<path d="M474.816 349.729L465.84 340.507L461.04 354.94C461.04 354.94 468.624 359.132 475.872 355.17L474.816 349.729Z" fill="#FFC3BD"/>
<path d="M453.408 339.077L451.76 350.486L460.992 354.941L465.84 340.507L453.408 339.077Z" fill="#FFC3BD"/>
<path d="M580.992 673.099L567.264 674.48L552.976 640.896L566.704 639.515L580.992 673.099Z" fill="#FFC3BD"/>
<path d="M669.44 623.454L659.12 633.399L636.864 608.264L647.184 598.318L669.44 623.454Z" fill="#FFC3BD"/>
<path d="M654.4 628.633L662.144 614.298C662.274 614.047 662.489 613.853 662.748 613.753C663.008 613.653 663.294 613.654 663.552 613.755L675.472 618.424C675.767 618.551 676.032 618.741 676.25 618.98C676.468 619.22 676.635 619.504 676.739 619.815C676.843 620.125 676.883 620.454 676.855 620.781C676.827 621.108 676.732 621.425 676.576 621.712C673.792 626.644 672.208 628.912 668.8 635.225C666.704 639.104 662.624 647.998 659.728 653.307C656.832 658.617 651.52 656.02 652.256 653.521C655.568 642.31 654.944 636.079 654.016 631.148C653.857 630.289 653.993 629.4 654.4 628.633Z" fill="#263238"/>
<path d="M565.44 670.124H582.304C582.607 670.124 582.902 670.228 583.142 670.418C583.382 670.608 583.555 670.875 583.632 671.176L587.296 684.869C587.386 685.193 587.401 685.533 587.34 685.863C587.279 686.194 587.144 686.505 586.944 686.772C586.745 687.038 586.488 687.254 586.194 687.4C585.899 687.547 585.575 687.62 585.248 687.615C579.296 687.615 576.48 687.615 569.072 687.615H546.416C540.24 687.615 538.96 681.22 541.504 680.628C552.944 678.031 559.52 674.447 563.056 671.028C563.712 670.429 564.563 670.106 565.44 670.124Z" fill="#263238"/>
<path opacity="0.2" d="M552.992 640.912L560.352 658.222H574.672L566.72 639.531L552.992 640.912Z" fill="black"/>
<path opacity="0.2" d="M647.184 598.335L636.864 608.28L648.352 621.234L658.672 611.272L647.184 598.335Z" fill="black"/>
<path d="M506.016 289.349C506.016 289.349 499.84 292.127 520.544 376.294L578.048 371.182C575.072 347.23 573.792 332.402 580.816 282.05C572.625 281.054 564.373 280.675 556.128 280.916C547.382 281.05 538.656 281.825 530.016 283.234C521.921 284.853 513.91 286.894 506.016 289.349Z" fill="#263238"/>
<path d="M556.128 280.439C556.128 280.439 559.328 280.439 563.232 280.439C565.552 284.105 558.032 300.166 545.632 310.671C543.744 304.831 540.275 299.665 535.632 295.777L556.128 280.439Z" fill="#FFE7EB"/>
<path d="M530.016 283.02C530.016 283.02 528.56 283.233 525.088 284.055C522.768 287.721 518.848 303.387 525.68 311.377C527.4 305.318 530.85 299.929 535.584 295.908L530.016 283.02Z" fill="#FFE7EB"/>
<path d="M550.992 250.932C550.08 259.71 549.76 275.59 556.128 280.916C556.128 280.916 549.328 288.051 535.584 295.909C525.584 288.807 530.016 283.234 530.016 283.234C539.184 280.111 538.336 272.993 536.144 266.417L550.992 250.932Z" fill="#FFC3BD"/>
<path d="M535.344 295.958C535.344 295.958 543.776 286.522 548.144 288.33C552.512 290.138 549.136 293.377 548.752 296.418C548.368 299.459 550.448 307.547 544.608 305.443C538.768 303.339 535.344 295.958 535.344 295.958Z" fill="#8A5A8E"/>
<path d="M535.008 295.76C535.008 295.76 531.024 288.527 526.72 289.497C522.416 290.467 524.976 292.998 525.36 295.727C525.856 299.212 522.272 305.919 527.456 303.947C532.64 301.974 535.008 295.76 535.008 295.76Z" fill="#8A5A8E"/>
<g opacity="0.2">
<path d="M532.8 294.199C532.742 295.657 533.016 297.109 533.6 298.44C534.13 297.59 534.595 296.7 534.992 295.777C534.401 294.746 533.721 293.772 532.96 292.867C532.828 293.297 532.774 293.749 532.8 294.199Z" fill="black"/>
<path d="M538.416 292.9C536.608 294.544 535.36 295.958 535.36 295.958C535.825 296.945 536.36 297.895 536.96 298.802C537.927 297.806 538.497 296.475 538.56 295.07C538.714 294.348 538.664 293.595 538.416 292.9Z" fill="black"/>
</g>
<path d="M535.248 298.916C534.048 298.916 533.312 297.584 533.232 294.412C533.152 291.239 535.52 292.998 535.52 292.998C535.52 292.998 538.72 291.354 538.144 295.152C537.728 298.16 536.48 298.916 535.248 298.916Z" fill="#8A5A8E"/>
<path opacity="0.2" d="M544.944 257.26L536.16 266.416C536.687 267.941 537.088 269.508 537.36 271.101C540.896 270.263 546.016 266.482 546.064 262.602C546.007 260.767 545.627 258.957 544.944 257.26Z" fill="black"/>
<path d="M537.408 221.259C537.408 221.259 527.808 234.92 526.208 240.986C519.68 244.898 518.368 225.648 521.824 213.779C532.608 220.733 537.408 221.259 537.408 221.259Z" fill="#263238"/>
<path d="M558.512 237.221C554.944 251.244 553.712 257.26 545.36 263.129C532.768 271.973 516.784 264.411 516.192 249.567C515.664 236.218 521.584 215.522 536.192 212.612C539.411 211.941 542.744 212.129 545.872 213.159C549 214.189 551.819 216.027 554.058 218.496C556.298 220.965 557.883 223.983 558.663 227.262C559.443 230.54 559.391 233.969 558.512 237.221Z" fill="#FFC3BD"/>
<path d="M565.936 231.616C565.936 231.616 559.072 243.041 558.144 248.055C553.168 251.523 551.072 236.301 553.168 226.684C555.456 218.119 565.936 231.616 565.936 231.616Z" fill="#263238"/>
<path d="M563.2 223.675C561.216 225.221 559.12 219.516 561.088 215.144C557.296 215.39 552.736 213.072 553.712 209.308C546.24 211.889 543.472 204.08 544.336 198.672C545.376 192.096 550.944 190.699 554.224 192.425C554.224 189.482 561.456 183.351 564.208 188.151C569.312 186.293 577.536 186.869 577.36 193.313C580.736 193.411 590.704 197.34 586.96 206.464C591.36 206.727 593.744 212.464 591.296 216.804C592.26 217.329 593.088 218.084 593.708 219.007C594.328 219.929 594.723 220.991 594.86 222.104C594.996 223.216 594.87 224.346 594.492 225.398C594.114 226.45 593.495 227.392 592.688 228.147C594.72 232.487 588.56 238.947 585.28 238.175C582.784 242.103 578.96 245.062 576.464 241.709C571.664 245.342 566.144 240.723 567.376 237.172C561.936 236.317 556.384 226.996 563.2 223.675Z" fill="#263238"/>
<path d="M571.328 209.867C574.912 216.015 574.608 223.018 570.672 225.402C566.736 227.785 560.608 224.826 557.024 218.678C553.44 212.53 553.728 205.527 557.68 203.143C561.632 200.76 567.744 203.735 571.328 209.867Z" fill="#8A5A8E"/>
<path d="M538.048 219.615C537.84 221.374 533.12 220.914 531.76 217.807C529.808 219.911 525.216 220.996 523.648 218.711C520.992 223.84 515.648 222.492 514.272 220.043C512.896 217.593 511.984 213.04 514.752 212.136C513.152 210.722 513.632 204.064 517.824 204.903C519.584 201.352 524.4 197.324 527.92 200.464C529.84 198.82 537.52 195.401 540.624 201.664C541.305 201.186 542.082 200.873 542.898 200.748C543.714 200.623 544.546 200.69 545.333 200.943C546.12 201.196 546.841 201.629 547.441 202.209C548.042 202.79 548.506 203.503 548.8 204.294C553.776 202.963 555.936 206.842 555.92 208.947C559.456 209.933 559.696 216.213 557.52 217.561C558.368 220.733 557.92 224.136 554.672 223.84C554.048 228.114 548.48 228.772 547.168 226.454C543.552 228.838 536.176 224.695 538.048 219.615Z" fill="#263238"/>
<path d="M529.6 207.483C533.648 201.729 548.416 199.264 561.2 207.96C572.72 215.735 571.968 233.802 562.8 232.832C553.632 231.862 544.576 220.831 544.576 220.831L529.6 207.483Z" fill="#263238"/>
<path d="M559.632 249.879C558.357 252.351 556.183 254.206 553.584 255.04C550.112 256.109 548.32 252.953 549.216 249.55C550.032 246.492 552.8 242.251 556.304 242.678C557.068 242.783 557.795 243.082 558.418 243.548C559.041 244.015 559.541 244.634 559.872 245.35C560.202 246.065 560.354 246.855 560.312 247.645C560.27 248.436 560.036 249.204 559.632 249.879Z" fill="#FFC3BD"/>
<path d="M520.544 376.295C520.544 376.295 501.088 464.736 514.144 527.089C522.848 568.844 554.144 653.192 554.144 653.192L578.688 652.551C578.688 652.551 554.928 564.027 550.016 529.259C541.616 469.717 562.656 372.612 562.656 372.612L520.544 376.295Z" fill="#8A5A8E"/>
<path opacity="0.2" d="M542.976 394.164L555.2 414.039C551.505 437.604 549.159 461.372 548.176 485.219C530.976 453.492 539.2 410.948 542.976 394.164Z" fill="black"/>
<path d="M550.688 654.507L580.992 653.701L579.248 644.15L548.32 645.646L550.688 654.507Z" fill="#263238"/>
<path d="M533.12 375.358C533.12 375.358 544.528 469.142 569.28 520.349C589.264 561.709 642.592 620.627 642.592 620.627L656.224 606.193C656.224 606.193 620.208 542.213 605.36 514.743C568.928 447.344 598.704 395.972 578.048 371.231L533.12 375.358Z" fill="#8A5A8E"/>
<path d="M641.216 622.517L658.816 604.895L652.976 596.725L634.304 615.86L641.216 622.517Z" fill="#263238"/>
<path d="M578.624 367.647L581.664 372.71C581.904 373.089 581.456 373.549 580.8 373.615L520.48 378.974C519.968 378.974 519.52 378.793 519.456 378.464L518.496 373.22C518.416 372.858 518.848 372.513 519.408 372.464L577.648 367.286C577.827 367.251 578.012 367.266 578.184 367.33C578.356 367.394 578.508 367.503 578.624 367.647Z" fill="#8A5A8E"/>
<path opacity="0.5" d="M578.624 367.647L581.664 372.71C581.904 373.089 581.456 373.549 580.8 373.615L520.48 378.974C519.968 378.974 519.52 378.793 519.456 378.464L518.496 373.22C518.416 372.858 518.848 372.513 519.408 372.464L577.648 367.286C577.827 367.251 578.012 367.266 578.184 367.33C578.356 367.394 578.508 367.503 578.624 367.647Z" fill="#FFE7EB"/>
<path d="M571.36 375.029L572.96 374.897C573.264 374.897 573.488 374.684 573.456 374.486L572.144 367.681C572.144 367.467 571.824 367.335 571.504 367.368L569.904 367.5C569.584 367.5 569.36 367.714 569.408 367.911L570.72 374.717C570.768 374.914 571.056 375.062 571.36 375.029Z" fill="#8A5A8E"/>
<path d="M524.912 379.155L526.512 379.024C526.816 379.024 527.04 378.81 527.008 378.613L525.696 371.807C525.639 371.689 525.544 371.594 525.428 371.538C525.312 371.481 525.181 371.466 525.056 371.495L523.456 371.626C523.136 371.626 522.912 371.84 522.96 372.037L524.272 378.843C524.32 379.073 524.608 379.188 524.912 379.155Z" fill="#8A5A8E"/>
<path d="M548.144 377.1L549.744 376.952C550.064 376.952 550.288 376.738 550.24 376.541L548.928 369.735C548.928 369.538 548.608 369.39 548.304 369.423L546.704 369.571C546.4 369.571 546.176 369.784 546.208 369.981L547.52 376.787C547.552 376.984 547.824 377.116 548.144 377.1Z" fill="#8A5A8E"/>
<path d="M535.408 236.745C535.184 237.896 534.416 238.717 533.68 238.57C532.944 238.422 532.528 237.353 532.736 236.202C532.944 235.052 533.744 234.23 534.48 234.378C535.216 234.526 535.632 235.578 535.408 236.745Z" fill="#263238"/>
<path d="M522.67 234.161C522.892 233.003 522.474 231.943 521.737 231.794C521 231.646 520.223 232.464 520.001 233.622C519.78 234.78 520.198 235.839 520.935 235.988C521.672 236.137 522.449 235.319 522.67 234.161Z" fill="#263238"/>
<path d="M522.08 231.944L519.52 230.596C519.52 230.596 520.496 233.045 522.08 231.944Z" fill="#263238"/>
<path d="M527.056 237.057C525.558 239.494 523.738 241.707 521.648 243.632C522.133 244.181 522.73 244.613 523.397 244.898C524.064 245.182 524.783 245.311 525.504 245.276L527.056 237.057Z" fill="#ED847E"/>
<path d="M530.704 250.701C533.068 250.727 535.354 249.834 537.104 248.202C537.138 248.176 537.166 248.143 537.186 248.105C537.206 248.066 537.217 248.024 537.22 247.98C537.222 247.937 537.215 247.894 537.199 247.853C537.183 247.813 537.158 247.777 537.127 247.747C537.096 247.718 537.059 247.696 537.019 247.683C536.979 247.67 536.936 247.666 536.894 247.672C536.852 247.677 536.812 247.692 536.776 247.716C536.741 247.74 536.71 247.771 536.688 247.808C535.611 248.783 534.325 249.484 532.935 249.852C531.545 250.221 530.09 250.247 528.688 249.928C528.652 249.921 528.615 249.922 528.58 249.929C528.544 249.937 528.51 249.952 528.481 249.974C528.451 249.995 528.425 250.023 528.406 250.054C528.387 250.086 528.374 250.121 528.368 250.158C528.359 250.195 528.357 250.234 528.364 250.272C528.37 250.309 528.385 250.345 528.406 250.376C528.427 250.407 528.455 250.434 528.487 250.453C528.519 250.472 528.555 250.484 528.592 250.487C529.286 250.637 529.995 250.708 530.704 250.701Z" fill="#263238"/>
<path d="M543.04 232.257C543.141 232.255 543.24 232.227 543.328 232.175C543.455 232.096 543.547 231.969 543.583 231.821C543.619 231.673 543.596 231.516 543.52 231.386C542.991 230.462 542.254 229.682 541.372 229.11C540.49 228.538 539.487 228.191 538.448 228.098C538.374 228.096 538.301 228.108 538.232 228.135C538.164 228.162 538.101 228.203 538.047 228.255C537.994 228.307 537.951 228.369 537.921 228.438C537.891 228.507 537.874 228.581 537.872 228.657C537.87 228.732 537.882 228.808 537.908 228.878C537.935 228.949 537.974 229.014 538.025 229.069C538.075 229.124 538.136 229.168 538.203 229.199C538.27 229.23 538.343 229.246 538.416 229.249C539.274 229.346 540.098 229.651 540.818 230.14C541.539 230.629 542.136 231.287 542.56 232.06C542.619 232.13 542.693 232.184 542.777 232.219C542.86 232.253 542.95 232.266 543.04 232.257Z" fill="#263238"/>
<path d="M519.168 227.621C519.258 227.642 519.351 227.642 519.44 227.621C520.183 227.169 521.02 226.903 521.882 226.846C522.744 226.789 523.606 226.942 524.4 227.292C524.53 227.348 524.675 227.351 524.808 227.302C524.94 227.252 525.049 227.153 525.113 227.025C525.178 226.896 525.193 226.748 525.156 226.608C525.118 226.469 525.031 226.349 524.912 226.273C523.954 225.827 522.905 225.625 521.855 225.685C520.805 225.745 519.784 226.065 518.88 226.618C518.754 226.694 518.662 226.817 518.624 226.961C518.585 227.105 518.602 227.259 518.672 227.39C518.727 227.472 518.802 227.536 518.889 227.576C518.976 227.617 519.073 227.632 519.168 227.621Z" fill="#263238"/>
<path d="M583.264 295.497C584.352 296.582 585.104 297.437 585.952 298.407C586.8 299.377 587.552 300.33 588.32 301.3C589.84 303.256 591.296 305.262 592.656 307.317C595.36 311.46 597.757 315.806 599.824 320.32C601.887 324.855 603.552 329.569 604.8 334.408C605.424 336.825 605.984 339.34 606.4 341.756C607.194 345.248 606.804 348.913 605.296 352.146C604.418 353.844 603.202 355.334 601.728 356.518C600.45 357.529 599.045 358.358 597.552 358.984C594.984 360.002 592.292 360.655 589.552 360.924C584.69 361.404 579.792 361.338 574.944 360.727C565.663 359.618 556.503 357.62 547.584 354.759L549.056 348.792C553.408 349.532 557.888 350.222 562.304 350.699C566.72 351.176 571.168 351.603 575.536 351.702C579.767 351.858 584.004 351.616 588.192 350.978C589.995 350.677 591.75 350.124 593.408 349.335C594.424 348.94 595.262 348.173 595.76 347.181C595.894 346.802 595.959 346.401 595.952 345.997C595.974 345.702 595.974 345.405 595.952 345.11C595.952 344.781 595.84 344.485 595.696 343.877C595.248 341.756 594.656 339.669 594.016 337.597C592.714 333.467 591.109 329.445 589.216 325.564C587.314 321.66 585.132 317.907 582.688 314.336C581.488 312.528 580.224 310.769 578.912 309.076C578.256 308.221 577.568 307.432 576.896 306.593C576.224 305.755 575.456 304.949 574.928 304.358L583.264 295.497Z" fill="#FFC3BD"/>
<path d="M552.72 349.697L541.52 343.598L541.008 358.837C541.008 358.837 549.008 359.363 553.584 355.549L552.72 349.697Z" fill="#FFC3BD"/>
<path d="M533.072 431.677L542.32 328.425L522.56 312.873L462.24 307.169L451.76 423.984L533.072 431.677Z" fill="#8A5A8E"/>
<path opacity="0.8" d="M533.072 431.677L542.32 328.425L522.56 312.873L462.24 307.169L451.76 423.984L533.072 431.677Z" fill="#FFE7EB"/>
<path d="M542.32 328.424L522.56 312.873L527.744 331.482L542.32 328.424Z" fill="#8A5A8E"/>
<path d="M458.832 442.034C472.44 442.034 483.472 430.7 483.472 416.718C483.472 402.737 472.44 391.402 458.832 391.402C445.224 391.402 434.192 402.737 434.192 416.718C434.192 430.7 445.224 442.034 458.832 442.034Z" fill="#8A5A8E"/>
<path d="M471.006 432.54C479.521 425.629 480.97 412.934 474.243 404.186C467.516 395.437 455.16 393.948 446.646 400.86C438.131 407.771 436.682 420.466 443.409 429.214C450.136 437.962 462.491 439.451 471.006 432.54Z" fill="#FFE7EB"/>
<path d="M470.976 414.942L462.304 413.906L463.312 404.996L457.104 404.24L456.096 413.15L447.424 412.098L446.688 418.493L455.36 419.545L454.336 428.438L460.56 429.195L461.568 420.285L470.24 421.337L470.976 414.942Z" fill="#8A5A8E"/>
<path opacity="0.4" d="M527.568 349.828C527.488 350.732 527.235 351.61 526.824 352.413C526.413 353.217 525.852 353.929 525.173 354.509C524.493 355.089 523.71 355.526 522.866 355.795C522.023 356.063 521.136 356.159 520.256 356.075L476.256 351.916C474.482 351.745 472.845 350.858 471.706 349.45C470.566 348.042 470.016 346.227 470.176 344.403C470.257 343.5 470.51 342.621 470.921 341.818C471.332 341.015 471.893 340.303 472.572 339.722C473.251 339.142 474.035 338.705 474.878 338.437C475.722 338.168 476.609 338.073 477.488 338.156L521.488 342.315C522.368 342.398 523.223 342.658 524.005 343.08C524.786 343.503 525.479 344.079 526.044 344.777C526.609 345.475 527.034 346.28 527.295 347.147C527.557 348.013 527.65 348.924 527.568 349.828Z" fill="#8A5A8E"/>
<path opacity="0.4" d="M512.576 368.486C512.496 369.39 512.243 370.268 511.832 371.071C511.421 371.874 510.859 372.586 510.18 373.167C509.501 373.747 508.717 374.184 507.874 374.452C507.03 374.721 506.143 374.816 505.264 374.733L474.512 371.823C473.632 371.74 472.777 371.481 471.996 371.058C471.214 370.636 470.521 370.059 469.956 369.362C469.392 368.664 468.966 367.859 468.705 366.992C468.443 366.125 468.35 365.214 468.432 364.31C468.512 363.407 468.765 362.528 469.176 361.725C469.587 360.922 470.149 360.21 470.828 359.63C471.507 359.05 472.29 358.613 473.134 358.344C473.978 358.075 474.865 357.98 475.744 358.064L506.496 360.99C508.268 361.161 509.901 362.045 511.041 363.45C512.18 364.854 512.732 366.665 512.576 368.486Z" fill="#8A5A8E"/>
<path d="M534.672 344.502L536.352 355.894L540.992 358.837L541.504 343.598L534.672 344.502Z" fill="#FFC3BD"/>
<path d="M580.8 282.083C587.856 283.365 597.744 304.144 597.744 304.144L579.968 320.583C579.968 320.583 565.824 304.735 566.576 295.299C567.232 287.327 571.84 280.439 580.8 282.083Z" fill="#263238"/>
<path d="M651.648 636.342C651.832 636.339 652.015 636.311 652.192 636.26C653.888 635.668 654.992 632.462 655.504 630.605C655.515 630.551 655.512 630.495 655.495 630.443C655.478 630.392 655.448 630.345 655.408 630.309C655.365 630.273 655.312 630.253 655.256 630.253C655.201 630.253 655.147 630.273 655.104 630.309C654.592 630.572 650.08 633.054 649.936 634.879C649.915 635.078 649.949 635.279 650.034 635.459C650.119 635.639 650.251 635.791 650.416 635.898C650.765 636.187 651.2 636.343 651.648 636.342ZM654.848 631.114C654.064 633.679 653.056 635.372 652.096 635.701C651.879 635.77 651.647 635.779 651.426 635.727C651.204 635.675 650.999 635.564 650.832 635.405C650.746 635.354 650.676 635.279 650.631 635.189C650.585 635.098 650.566 634.996 650.576 634.895C650.576 633.777 653.216 632.018 654.768 631.114H654.848Z" fill="#8A5A8E"/>
<path d="M650.944 631.838C652.481 631.831 653.996 631.466 655.376 630.77C655.416 630.743 655.448 630.706 655.47 630.663C655.493 630.62 655.504 630.572 655.504 630.523C655.506 630.472 655.493 630.422 655.468 630.378C655.442 630.334 655.405 630.299 655.36 630.276C655.216 630.194 651.648 628.172 649.728 628.879C649.486 628.952 649.265 629.082 649.081 629.259C648.898 629.436 648.758 629.655 648.672 629.898C648.552 630.129 648.512 630.394 648.559 630.651C648.605 630.908 648.735 631.141 648.928 631.312C649.524 631.713 650.234 631.898 650.944 631.838ZM654.608 630.523C653.088 631.197 650.128 631.608 649.296 630.885C649.152 630.753 649.008 630.556 649.2 630.112C649.257 629.949 649.351 629.801 649.473 629.681C649.595 629.562 649.743 629.473 649.904 629.422C651.2 628.945 653.6 630.013 654.608 630.589V630.523Z" fill="#8A5A8E"/>
<path d="M557.968 672.919C559.515 672.88 561.054 672.677 562.56 672.31C562.613 672.291 562.659 672.255 562.691 672.208C562.723 672.161 562.74 672.105 562.74 672.047C562.74 671.99 562.723 671.934 562.691 671.887C562.659 671.839 562.613 671.804 562.56 671.784C561.872 671.439 555.744 668.496 554.208 669.614C554.067 669.709 553.955 669.842 553.884 669.999C553.813 670.156 553.787 670.33 553.808 670.502C553.812 670.824 553.889 671.14 554.034 671.426C554.178 671.711 554.386 671.958 554.64 672.146C555.641 672.761 556.807 673.032 557.968 672.919ZM561.6 671.932C559.792 672.277 556.432 672.738 555.04 671.669C554.862 671.525 554.715 671.343 554.61 671.136C554.506 670.93 554.445 670.702 554.432 670.469C554.418 670.397 554.426 670.322 554.455 670.254C554.483 670.187 554.531 670.13 554.592 670.091C555.44 669.483 559.056 670.782 561.6 671.932Z" fill="#8A5A8E"/>
<path d="M562.496 672.327C562.559 672.346 562.625 672.346 562.688 672.327C562.728 672.291 562.757 672.244 562.771 672.192C562.785 672.139 562.784 672.083 562.768 672.031C562.768 671.768 561.328 665.571 557.968 665.965C557.136 666.08 556.896 666.491 556.864 666.837C556.656 668.48 560.512 671.587 562.352 672.377L562.496 672.327ZM558.304 666.459C560.432 666.459 561.664 670.075 562.08 671.522C560.08 670.437 557.28 667.856 557.456 666.853C557.456 666.771 557.456 666.541 558.08 666.475L558.304 666.459Z" fill="#8A5A8E"/>
<path d="M534.784 234.509L532.24 233.161C532.24 233.161 533.216 235.611 534.784 234.509Z" fill="#263238"/>
</svg>
