<svg id="visual" viewBox="0 0 1200 540" width="1200" height="540" xmlns="http://www.w3.org/2000/svg" xmlns:xlink="http://www.w3.org/1999/xlink" version="1.1"><path d="M0 174L40 176.7C80 179.3 160 184.7 240 175.7C320 166.7 400 143.3 480 125.3C560 107.3 640 94.7 720 96.5C800 98.3 880 114.7 960 114.7C1040 114.7 1120 98.3 1160 90.2L1200 82L1200 0L1160 0C1120 0 1040 0 960 0C880 0 800 0 720 0C640 0 560 0 480 0C400 0 320 0 240 0C160 0 80 0 40 0L0 0Z" fill="#ffffff"></path><path d="M0 228L40 231.5C80 235 160 242 240 228.5C320 215 400 181 480 161.3C560 141.7 640 136.3 720 148.8C800 161.3 880 191.7 960 197C1040 202.3 1120 182.7 1160 172.8L1200 163L1200 80L1160 88.2C1120 96.3 1040 112.7 960 112.7C880 112.7 800 96.3 720 94.5C640 92.7 560 105.3 480 123.3C400 141.3 320 164.7 240 173.7C160 182.7 80 177.3 40 174.7L0 172Z" fill="#faedd2"></path><path d="M0 293L40 294.7C80 296.3 160 299.7 240 281.7C320 263.7 400 224.3 480 206.3C560 188.3 640 191.7 720 209.7C800 227.7 880 260.3 960 262.2C1040 264 1120 235 1160 220.5L1200 206L1200 161L1160 170.8C1120 180.7 1040 200.3 960 195C880 189.7 800 159.3 720 146.8C640 134.3 560 139.7 480 159.3C400 179 320 213 240 226.5C160 240 80 233 40 229.5L0 226Z" fill="#f3dba6"></path><path d="M0 347L40 346C80 345 160 343 240 325.8C320 308.7 400 276.3 480 258.3C560 240.3 640 236.7 720 260C800 283.3 880 333.7 960 346.3C1040 359 1120 334 1160 321.5L1200 309L1200 204L1160 218.5C1120 233 1040 262 960 260.2C880 258.3 800 225.7 720 207.7C640 189.7 560 186.3 480 204.3C400 222.3 320 261.7 240 279.7C160 297.7 80 294.3 40 292.7L0 291Z" fill="#f3dba6"></path><path d="M0 406L40 406C80 406 160 406 240 386.2C320 366.3 400 326.7 480 305C560 283.3 640 279.7 720 306.7C800 333.7 880 391.3 960 410.3C1040 429.3 1120 409.7 1160 399.8L1200 390L1200 307L1160 319.5C1120 332 1040 357 960 344.3C880 331.7 800 281.3 720 258C640 234.7 560 238.3 480 256.3C400 274.3 320 306.7 240 323.8C160 341 80 343 40 344L0 345Z" fill="#faedd2"></path><path d="M0 541L40 541C80 541 160 541 240 541C320 541 400 541 480 541C560 541 640 541 720 541C800 541 880 541 960 541C1040 541 1120 541 1160 541L1200 541L1200 388L1160 397.8C1120 407.7 1040 427.3 960 408.3C880 389.3 800 331.7 720 304.7C640 277.7 560 281.3 480 303C400 324.7 320 364.3 240 384.2C160 404 80 404 40 404L0 404Z" fill="#ffffff"></path></svg>